<svg xmlns="http://www.w3.org/2000/svg" width="100" height="100" viewBox="0 0 100 100"><g fill="#fff"><path d="M.713 0h2.919c.212 0 .375.048.491.145.154.115.255.274.303.477l.159.621c.077.27.144.544.202.824.058.279.125.553.203.823.039.097.058.178.058.246l.029.246c.077.27.14.54.188.809.047.269.11.539.187.809.076.212.135.434.173.665.039.231.087.462.145.693.192.636.351 1.281.477 1.937.125.655.274 1.3.448 1.936.096.289.168.578.217.867.047.29.111.578.188.867.077.231.135.429.173.592.039.164.135.323.289.477l.073.015.072-.015c.116-.038.203-.144.26-.318l.145-.433c.076-.25.14-.506.188-.766.047-.26.12-.515.217-.766l.058-.274.058-.275c.096-.25.168-.505.217-.766.047-.26.11-.515.188-.766l.058-.231.058-.26c.058-.174.106-.352.145-.535.035-.183.083-.362.141-.535.039-.153.058-.27.058-.347l.116-.404.116-.405c.174-.539.318-1.083.434-1.633.115-.549.25-1.093.405-1.632.096-.27.168-.54.216-.81.048-.27.111-.539.188-.809l.203-.592s.192-.322.404-.419c.133-.038.288-.058.461-.058h2.226l.592.015c.183.01.342.062.477.159.135.097.222.237.26.419.039.183.087.371.145.563.096.347.183.699.26 1.055.076.356.163.708.26 1.055.077.251.14.501.188.751.047.251.11.502.188.752.058.212.106.419.146.621.037.203.095.41.172.621.212.713.395 1.441.55 2.182.153.742.336 1.469.549 2.182.095.289.168.588.216.896.048.309.121.597.217.867l.144.535c.039.164.106.313.203.448l.144.086h.116l.057-.043.058-.043c.115-.154.192-.322.232-.505.038-.184.086-.371.144-.563.097-.308.169-.617.217-.925.048-.309.12-.617.216-.925.25-.847.458-1.695.622-2.543.163-.848.37-1.695.622-2.543.095-.308.167-.617.216-.925s.121-.616.217-.925c.039-.096.057-.178.057-.245l.03-.246c.077-.27.144-.54.202-.81.058-.269.125-.539.202-.809l.131-.52c.047-.193.129-.337.246-.434.134-.096.298-.154.491-.173.189-.02.411-.03.662-.03h2.21c.183 0 .342.029.477.087.192.096.279.26.26.492-.02.231-.058.443-.116.635-.154.443-.284.91-.39 1.401-.106.492-.236.968-.391 1.431l-.087.333-.086.332c-.097.328-.188.67-.274 1.026-.087.356-.178.698-.274 1.025-.039.097-.062.193-.073.289-.01.097-.034.193-.072.29-.097.25-.168.501-.216.751-.048.251-.121.501-.217.751-.038.096-.057.183-.057.26 0 .078-.02.164-.058.26-.097.27-.169.544-.216.824-.048.279-.121.554-.217.824l-.159.563-.159.563c-.23.732-.428 1.474-.592 2.225-.165.751-.372 1.484-.621 2.196l-.087.376-.086.375c-.097.328-.189.67-.275 1.026-.087.356-.188.699-.303 1.025l-.202.694c-.058.212-.203.367-.434.462-.135.039-.3.058-.492.058h-2.428l-.607-.014c-.192-.009-.356-.062-.491-.159-.116-.096-.193-.217-.231-.361l-.144-.448c-.116-.385-.212-.766-.29-1.142-.077-.376-.164-.756-.26-1.142-.078-.231-.14-.466-.188-.708-.048-.241-.111-.486-.188-.737-.058-.173-.101-.351-.13-.534-.028-.183-.072-.361-.13-.535-.154-.462-.279-.939-.375-1.431s-.212-.978-.347-1.459c-.097-.27-.169-.53-.217-.78-.048-.25-.111-.51-.188-.78-.097-.328-.173-.646-.231-.954-.058-.308-.135-.617-.231-.925-.058-.154-.101-.298-.13-.434-.029-.135-.082-.26-.159-.376l-.173-.116h-.115c-.135.039-.231.155-.289.347l-.145.492c-.135.405-.241.823-.318 1.257-.077.434-.173.863-.289 1.286-.25.867-.467 1.734-.65 2.601-.184.867-.4 1.733-.65 2.601-.097.309-.169.612-.217.91-.048.299-.121.603-.217.911-.097.27-.169.54-.217.81-.048.27-.111.539-.188.809l-.159.52c-.048.154-.149.28-.304.376-.135.077-.299.115-.491.115h-3.121l-.347-.072s-.193-.053-.289-.13c-.155-.097-.251-.255-.29-.477-.039-.221-.086-.438-.144-.65-.097-.308-.188-.626-.275-.954-.087-.328-.178-.655-.274-.983-.039-.115-.062-.226-.072-.332-.01-.105-.034-.226-.072-.361-.116-.328-.212-.655-.289-.983-.077-.328-.164-.655-.26-.983-.039-.076-.058-.148-.058-.217l-.029-.216c-.097-.27-.178-.553-.246-.853-.068-.298-.149-.593-.246-.881l-.029-.173-.058-.202c-.096-.27-.169-.544-.216-.824-.048-.279-.121-.564-.217-.853l-.158-.59c-.048-.203-.101-.4-.159-.593-.058-.191-.106-.384-.145-.578-.038-.191-.096-.384-.173-.577-.173-.559-.323-1.127-.448-1.705-.125-.578-.274-1.146-.447-1.705l-.087-.347-.086-.347c-.136-.405-.252-.819-.347-1.242-.097-.424-.213-.848-.348-1.272l-.159-.607c-.067-.269-.053-.472.044-.607.097-.115.231-.192.405-.231l.115-.014.116-.015zM28.802 0h13.322c.23 0 .452.01.664.029.212.019.367.096.463.231l.071.202.073.231v.317c.02.136.024.28.014.434l-.013.434.014.448c.01.145.005.284-.014.419-.019.096-.029.241-.029.433-.058.232-.155.386-.289.463-.116.077-.26.115-.434.115h-7.774000000000001l-.535-.014c-.202-.01-.404-.01-.607 0-.202.01-.39.029-.563.058s-.298.072-.375.13c-.135.097-.217.236-.246.419-.029.184-.044.391-.044.622v2.485l.116.39c.039.106.105.188.202.246.115.078.25.121.405.13l.491.015h6.532l.506-.015c.202-.009.399-.009.593 0l.535.043c.163.02.284.058.361.116.097.058.164.173.202.347.038.173.062.361.072.563s.01.41 0 .622l-.015.548v.405c0 .135-.02.25-.058.347-.039.154-.115.279-.23.375-.097.058-.228.097-.391.116-.163.02-.347.029-.548.029l-.607-.015-.506-.014h-5.635c-.23 0-.452-.004-.664-.015-.213-.009-.41 0-.593.029s-.337.087-.462.174c-.126.086-.217.217-.274.39l-.03.303v3.021c0 .231.014.438.044.622.029.183.111.323.246.418.057.058.129.092.216.101l.274.073h.29c.095.02.202.024.317.014l.318-.014h8.627c.144 0 .274.029.39.086.155.058.26.164.318.318.038.097.062.212.072.347l.014.434v1.33c0 .231-.01.448-.028.65-.02.202-.106.352-.26.448-.116.097-.266.144-.449.144h-13.599c-.27 0-.505-.014-.708-.043-.202-.029-.352-.121-.448-.274-.077-.116-.115-.265-.115-.448v-19.089000000000002s.039-.308.115-.404c.077-.135.222-.231.434-.289l.115-.015.117-.015zM2.562 23.438h2.457l.622.015c.202.01.351.082.448.217.096.135.145.313.145.535v13.798l-.015.448c-.01.145.004.284.043.419v.289l.015.39c.009.125.033.236.072.333.135.25.405.375.81.375h6.792l.578-.015c.231-.009.452-.009.665 0 .212.01.409.034.593.072.183.039.303.097.361.173.096.116.145.26.145.434v1.8780000000000001l.015.434c.009.135-.005.251-.043.347-.077.154-.173.26-.289.318-.097.077-.241.115-.434.115h-12.518c-.27 0-.506-.014-.708-.043-.203-.029-.352-.121-.448-.274-.077-.116-.115-.265-.115-.448v-18.567l.014-.521c.009-.173.043-.308.101-.404.077-.135.231-.231.462-.289l.116-.015.116-.014zM18.629 23.467h2.485l.608.014c.191.01.336.082.432.217.097.135.149.308.161.52l.013.694v17.282c0 .25.004.53.015.838.009.308-.035.539-.129.693-.079.135-.252.241-.521.318-.136.039-.281.048-.435.029-.153-.02-.307-.029-.463-.029h-1.704c-.213 0-.41-.009-.592-.029-.185-.019-.334-.077-.448-.173-.097-.096-.156-.24-.173-.434-.02-.192-.029-.395-.029-.607v-17.281l-.015-.954c-.011-.365.033-.625.129-.78.077-.115.202-.211.375-.289l.16-.015.131-.014zM26.201 23.438h2.226c.365 0 .674.015.924.043.25.029.424.198.521.506l.029.304v6.401s.029.328.087.462l.101.116.129.058c.135.039.265 0 .391-.115l.274-.26.462-.463c.154-.154.299-.317.434-.491l.232-.203.23-.246.203-.275.115-.086.115-.087c.097-.153.212-.284.347-.39.135-.105.25-.226.347-.361.116-.154.222-.279.318-.376l.145-.115c.23-.308.491-.588.78-.838.289-.25.549-.53.781-.838l.144-.145.173-.173.173-.203.058-.072.087-.072c.115-.077.202-.183.26-.318l.145-.116.144-.116c.058-.096.125-.183.202-.26l.232-.26.101-.086.101-.086c.135-.192.29-.361.463-.506.173-.144.394-.246.664-.303.154-.039.333-.053.535-.043l.563.014h2.226l.678-.014c.241-.009.429.034.564.13.115.097.144.208.087.333l-.145.304-.289.274-.29.274-.389.433c-.125.135-.266.27-.419.405-.674.675-1.349 1.358-2.023 2.052-.675.693-1.349 1.378-2.022 2.052-.309.347-.637.675-.982.983l-.376.39c-.115.125-.192.294-.23.506-.04.154-.011.303.087.448l.23.361c.192.29.391.574.593.853.202.279.399.563.592.852.809 1.156 1.618 2.298 2.428 3.425.809 1.127 1.618 2.269 2.427 3.424l1.041 1.474.246.333.246.332c.058.097.125.231.202.405.077.173.048.308-.086.404-.135.097-.327.144-.578.144h-2.976l-.637.015s-.404-.005-.577-.043c-.213-.077-.381-.188-.506-.333-.126-.145-.246-.304-.361-.477-.116-.153-.227-.312-.333-.477l-.333-.505c-.52-.81-1.05-1.599-1.589-2.37-.54-.771-1.079-1.561-1.619-2.37l-.621-.954c-.202-.308-.409-.616-.621-.925l-.289-.333c-.117-.125-.27-.168-.463-.13-.192.058-.385.188-.577.39l-.492.506-.289.304-.289.303-.376.39c-.115.125-.212.274-.289.448-.058.115-.092.241-.101.375l-.015.434v.375c-.02.097-.025.208-.015.333l.015.332v3.41l-.015.606c-.01.193-.062.347-.158.462-.096.116-.241.184-.433.203-.193.019-.396.028-.607.028h-1.966l-.607-.014c-.193-.009-.356-.062-.491-.159-.135-.096-.203-.274-.203-.534v-18.337l-.015-.665c-.01-.231.024-.414.101-.549.116-.135.27-.231.463-.289l.115-.015.115-.013zM46.025 23.438h13.324c.23 0 .452.01.663.029.213.019.367.096.463.231l.073.202.072.231v.317c.02.136.024.28.013.434l-.013.434.013.448c.012.145.007.284-.013.419-.02.096-.028.241-.028.433-.06.232-.156.386-.29.463-.116.077-.259.115-.433.115h-7.775l-.534-.014c-.202-.009-.404-.009-.608 0-.202.01-.39.029-.563.058s-.298.072-.375.13c-.135.097-.217.236-.246.419-.03.183-.044.39-.044.621v2.485l.116.39c.039.106.105.188.202.246.115.078.25.121.405.13l.491.014h6.533l.505-.014c.202-.01.399-.01.593 0l.536.043c.162.02.283.058.359.116.097.058.165.174.202.347.04.173.063.361.072.563.011.202.011.41 0 .622l-.013.549v.405c0 .135-.02.25-.06.347-.037.154-.114.279-.23.375-.097.058-.226.097-.391.116-.162.02-.347.029-.549.029l-.605-.014-.507-.015h-5.636c-.23 0-.452-.004-.664-.015-.214-.009-.41 0-.593.029-.184.029-.337.086-.462.173-.126.086-.217.217-.274.39l-.03.303v3.0200000000000005c0 .231.014.438.044.622.028.183.111.323.246.418.057.058.129.092.216.101l.274.073h.29c.096.02.202.024.318.014l.318-.014h8.626c.146 0 .274.029.391.086.154.058.259.164.318.318.037.097.062.212.072.347l.014.434v1.33c0 .231-.009.448-.028.65-.021.202-.105.352-.26.448-.116.097-.266.144-.449.144h-13.597999999999999c-.27 0-.505-.014-.708-.043-.202-.029-.351-.121-.448-.274-.077-.116-.115-.265-.115-.448v-19.089000000000002s.039-.308.115-.404c.077-.135.222-.231.434-.289l.115-.015.116-.013zM12.503 46.875h2.948c.25 0 .496.005.737.015s.438.062.593.158c.057.039.101.102.129.189l.072.273v.145l.029.26v1.4169999999999998l.014.39s-.005.246-.043.361c-.096.327-.289.501-.578.521s-.636.028-1.041.028h-2.948c-.385 0-.718.015-.997.044-.28.028-.468.207-.563.534-.02.097-.02.184 0 .261.019.076.009.163-.029.26-.019.115-.024.245-.014.39l.014.391v13.611c0 .31-.014.572-.043.794-.029.222-.149.383-.361.477-.135.04-.289.06-.462.06h-2.456c-.212 0-.41-.011-.592-.028-.184-.021-.323-.088-.419-.204-.097-.154-.145-.352-.145-.593v-14.116l.015-.419c.01-.145-.005-.274-.043-.391-.02-.096-.02-.183 0-.26.019-.077.009-.154-.029-.231-.096-.327-.294-.506-.592-.534-.299-.029-.65-.044-1.055-.044h-2.689l-.708.015c-.26.01-.467-.004-.621-.043-.155-.059-.27-.145-.347-.26-.058-.097-.092-.222-.101-.376l-.015-.463v-1.416c0-.25.015-.472.043-.664.029-.193.12-.338.275-.434.058-.039.163-.077.317-.116h11.705zM19.207 46.875h2.313c.327 0 .61.015.852.044.242.029.409.178.505.447.04.098.06.198.06.305v4.811c0 .328-.011.699-.029 1.112-.02.415.046.728.202.939.097.116.206.179.332.188.125.011.266.034.419.073h5.549c.347 0 .702-.005 1.069-.015.366-.01.617-.13.75-.361.097-.174.136-.434.116-.78-.02-.348-.028-.655-.028-.925v-3.757c0-.289-.004-.625-.015-1.012-.009-.385.052-.654.188-.809.057-.097.178-.164.36-.203.185-.037.391-.062.622-.072.232-.009.463-.009.693 0l.608.015c.327 0 .669-.005 1.025-.015.357-.009.621.062.794.217.136.098.202.256.202.478v19.174c0 .251-.065.424-.202.521-.173.153-.448.227-.823.215-.375-.009-.727-.013-1.054-.013l-.592.013c-.222.012-.443.012-.665 0-.222-.009-.424-.028-.608-.057-.182-.028-.303-.092-.36-.188-.059-.077-.101-.207-.129-.389-.031-.185-.048-.378-.059-.58-.009-.201-.009-.403 0-.605l.015-.535v-5.029l.013-.23-.013-.23v-.29l-.028-.173-.031-.174c-.134-.27-.384-.403-.751-.403h-6.82l-.375.101c-.096.028-.184.102-.261.218-.038.097-.077.239-.114.432v.29c-.02.097-.024.206-.016.332l.016.333v6.183000000000001s-.06.577-.173.751c-.06.097-.18.16-.362.188s-.386.048-.606.057c-.222.012-.448.012-.68 0l-.606-.013-.983.013c-.386.012-.654-.041-.808-.157-.156-.117-.242-.299-.261-.549-.02-.251-.029-.512-.029-.782v-18.237s.038-.414.117-.549c.074-.135.21-.231.404-.289l.129-.015.128-.014zM56.257 66.094l.101.289c.049.114.087.235.117.36.028.125.032.246.014.362-.02.114-.087.202-.203.259-.153.097-.409.136-.765.116-.356-.02-.651-.028-.882-.028h-1.359l-.419.013c-.125.012-.246-.004-.361-.041-.212-.06-.366-.174-.462-.347-.097-.156-.169-.318-.218-.492-.048-.174-.11-.347-.188-.521-.097-.31-.197-.616-.303-.926-.106-.308-.217-.606-.333-.896l-.159-.477-.159-.391c-.058-.114-.145-.215-.26-.303-.115-.086-.27-.149-.462-.187l-.274-.016-.274-.016h-4.567c-.328 0-.679-.004-1.055-.013-.375-.011-.669.062-.881.217-.155.114-.26.271-.318.461-.057.193-.125.387-.202.577-.155.33-.284.672-.39 1.027-.106.355-.227.707-.362 1.054-.077.193-.149.396-.216.608-.068.213-.179.375-.333.491-.097.077-.236.13-.419.158-.184.028-.385.044-.607.044l-.678-.016-.607-.013-.911.013c-.356.012-.611-.032-.766-.129-.097-.058-.149-.146-.159-.259-.01-.117 0-.237.03-.362l.101-.362.115-.288c.193-.443.371-.896.534-1.358s.333-.915.506-1.358c.077-.154.135-.308.173-.461.038-.156.096-.31.173-.464.155-.403.308-.818.463-1.242.154-.424.308-.838.462-1.242.153-.386.298-.766.433-1.142.134-.377.279-.757.434-1.141.442-1.062.853-2.13 1.228-3.21.375-1.078.785-2.147 1.229-3.208l.086-.26.087-.26c.153-.404.308-.818.462-1.243.155-.423.318-.838.492-1.242.097-.211.178-.428.246-.65.067-.221.188-.399.361-.535.095-.057.221-.104.375-.144l.115-.015.116-.015h2.543l.649-.015c.222-.009.401.035.536.131.212.115.351.283.418.506.068.222.149.447.246.679.135.328.26.649.376.968.115.318.24.641.375.969l.115.347.115.346c.155.387.298.767.433 1.143.136.375.281.756.435 1.142.386.963.747 1.936 1.085 2.919.337.982.707 1.955 1.112 2.919l.071.217.072.216.347.926.348.925c.076.153.135.303.173.447l.145.448c.251.616.481 1.233.694 1.85.212.617.442 1.223.693 1.82l.057.16.061.161zm-7.486-6.618c.25-.097.365-.262.347-.492s-.077-.452-.173-.665c-.039-.076-.057-.149-.057-.215 0-.068-.02-.141-.058-.217-.25-.655-.482-1.32-.693-1.995-.212-.674-.454-1.349-.722-2.022l-.117-.362c-.038-.144-.086-.278-.144-.404-.058-.125-.126-.235-.203-.332s-.173-.145-.289-.145l-.115.087-.116.087c-.154.192-.265.424-.332.693-.068.27-.15.53-.246.78-.231.539-.439 1.089-.621 1.647-.183.559-.381 1.117-.593 1.676-.078.193-.145.382-.202.563l-.173.593c-.058.154-.048.327.028.521.096.134.255.211.477.23s.448.028.679.028h2.774s.395-.017.549-.056zM65.677 46.875h2.948c.25 0 .496.005.737.015.242.01.439.062.593.158.058.039.102.102.13.189l.072.273v.145l.028.26v1.4169999999999998l.016.39c.009.125-.005.246-.044.361-.097.327-.29.501-.577.521-.29.02-.637.028-1.041.028h-2.947c-.387 0-.718.015-.997.044-.28.028-.467.207-.563.534-.021.097-.021.184 0 .261.02.076.009.163-.029.26-.02.115-.023.245-.015.39l.015.391v13.611c0 .31-.015.572-.043.794-.029.222-.149.383-.362.477-.134.04-.288.06-.461.06h-2.457c-.214 0-.411-.011-.593-.028-.185-.021-.323-.088-.42-.204-.097-.154-.145-.352-.145-.593v-14.116l.016-.419c.009-.145-.007-.274-.044-.391-.02-.096-.02-.183 0-.26s.009-.154-.028-.231c-.097-.327-.295-.506-.593-.534-.299-.029-.65-.044-1.056-.044h-2.687l-.708.015s-.468-.004-.621-.043c-.155-.059-.271-.145-.347-.26-.059-.097-.093-.222-.102-.376l-.014-.463v-1.416c0-.25.014-.472.043-.664.028-.193.12-.338.274-.434.058-.039.163-.077.317-.116h11.705zM8.544 69.88c3.737-.06 6.309 1.049 7.716 3.323.192.307.341.625.448.952.106.329.207.686.304 1.069.039.155.053.334.044.535-.011.202-.054.352-.131.448-.097.116-.231.188-.404.217-.173.029-.367.042-.578.042h-2.341s-.318-.018-.433-.057c-.232-.097-.376-.251-.434-.461-.058-.213-.135-.424-.232-.637-.077-.193-.183-.396-.317-.608-.135-.211-.279-.375-.434-.489-.27-.193-.53-.357-.78-.492-.231-.096-.515-.178-.853-.245-.337-.068-.684-.112-1.04-.13-.357-.02-.708-.011-1.055.028-.347.038-.655.114-.925.23-.443.193-.785.42-1.026.679-.241.261-.409.651-.506 1.172-.039.134-.048.283-.028.448.019.162.048.294.086.391.154.403.371.687.65.852.279.164.611.322.997.477.212.096.429.169.65.217.221.049.448.109.679.187.52.174 1.055.325 1.604.45.549.125 1.093.264 1.632.417.096.039.193.06.29.06.096 0 .192.02.289.057.385.136.785.262 1.2.375.414.117.785.281 1.112.492.52.327.968.656 1.344.983.376.327.727.751 1.055 1.271.097.154.179.327.246.521l.216.577.03.16.028.13c.077.307.117.693.117 1.154.037.097.037.193 0 .29v.52l-.103.608c-.028.191-.072.384-.129.577-.116.347-.241.665-.375.953-.136.289-.3.568-.492.838l-.231.246c-.077.068-.145.149-.202.246-.097.116-.203.226-.318.331-.116.107-.241.209-.376.306l-.303.23-.333.23c-.328.213-.669.386-1.026.52-.356.137-.728.271-1.113.406-.27.095-.549.158-.838.187s-.578.072-.867.13c-.135.039-.265.053-.39.044-.125-.009-.245.004-.361.044h-.231l-.159-.016-.159.016c-.097.02-.26.028-.491.028s-.395-.009-.491-.028h-.29c-.135-.04-.274-.053-.419-.044s-.275-.005-.39-.044l-.26-.014-.26-.044c-.231-.057-.473-.105-.723-.145-.251-.037-.482-.097-.694-.174-.944-.307-1.772-.697-2.485-1.17-.713-.472-1.311-1.093-1.792-1.863-.308-.463-.549-1.012-.722-1.648-.039-.114-.063-.23-.072-.347-.01-.114-.034-.239-.072-.375-.039-.154-.068-.341-.087-.562s.019-.391.116-.507c.096-.153.235-.246.419-.274.183-.028.39-.044.621-.044h2.312s.327.028.462.088c.212.097.337.255.376.477.038.222.106.447.202.678.077.233.174.443.289.637.116.193.241.376.375.549.096.116.203.222.318.318l.347.261c.424.271.944.49 1.561.663.134.04.264.06.39.06.125 0 .264.02.419.057h.145c.153.04.365.058.635.058s.482-.018.636-.058c.058-.02.154-.028.289-.028l.303-.044c.105-.009.207-.032.304-.072.655-.174 1.175-.404 1.56-.693.385-.288.655-.771.81-1.444.038-.134.043-.29.014-.463-.029-.174-.062-.308-.101-.404-.192-.521-.52-.924-.983-1.214l-.317-.174c-.29-.173-.612-.313-.968-.419s-.708-.217-1.055-.331l-.39-.102-.419-.101c-.308-.097-.621-.18-.938-.246-.318-.067-.622-.149-.911-.246l-.231-.059-.202-.058-.419-.114-.419-.116c-.444-.153-.867-.313-1.272-.476-.404-.165-.78-.352-1.126-.564-.444-.29-.848-.626-1.214-1.012-.367-.385-.655-.828-.867-1.33-.077-.174-.135-.352-.173-.533-.039-.183-.086-.38-.145-.593-.039-.174-.068-.424-.087-.751s-.01-.597.029-.81c.019-.077.029-.193.029-.348.058-.21.105-.414.145-.605.038-.193.096-.387.173-.579.289-.674.66-1.247 1.113-1.719.452-.472.978-.9 1.575-1.286.385-.23.799-.415 1.243-.549.443-.134.915-.262 1.416-.376.192-.039.38-.063.564-.072.183-.011.37-.033.563-.072.058-.02.148-.02.274 0 .124.017.205.006.244-.031zM38.83 79.906c.038.116.061.314.071.593.01.278-.004.477-.043.593v.375c-.038.193-.058.395-.058.608 0 .211-.019.424-.057.634-.04.137-.068.271-.087.404l-.086.406-.274 1.012c-.087.327-.199.646-.333.952-.579 1.351-1.359 2.472-2.341 3.367-.982.896-2.196 1.585-3.642 2.065-.212.077-.424.137-.636.174l-.636.116c-.097.037-.198.058-.303.058l-.303.028-.954.088c-.078.02-.213.023-.405.013-.193-.009-.318-.024-.375-.041-.097-.021-.189-.024-.275-.016l-.274-.014h-.317c-.155-.039-.3-.063-.434-.072-.135-.011-.28-.035-.434-.072l-.463-.101-.462-.102-.65-.232c-.222-.077-.439-.162-.651-.259-1.156-.501-2.133-1.17-2.933-2.009-.8-.839-1.451-1.835-1.951-2.992-.115-.27-.212-.553-.289-.852-.077-.298-.164-.604-.26-.91-.038-.097-.058-.178-.058-.246l-.028-.218c-.039-.134-.068-.274-.087-.419l-.087-.447c-.02-.095-.024-.188-.014-.274.009-.086-.005-.167-.044-.246-.019-.114-.019-.235 0-.36.02-.125.02-.246 0-.362-.038-.094-.057-.245-.057-.447s.019-.352.057-.448c.02-.097.02-.187 0-.274-.019-.085-.019-.178 0-.274v-.173c.039-.134.053-.264.044-.391-.01-.125.004-.246.043-.36.039-.097.058-.197.058-.303 0-.107.019-.209.058-.306.096-.326.173-.649.23-.968.058-.318.145-.63.26-.939.155-.327.298-.654.434-.98.135-.327.298-.637.492-.927.577-.924 1.242-1.694 1.994-2.312.75-.616 1.666-1.146 2.745-1.589.25-.097.516-.174.794-.23.28-.06.554-.125.824-.202.096-.039.188-.06.274-.06l.274-.028.867-.085h.318c1.367-.04 2.552.101 3.554.417 1.002.318 1.897.757 2.688 1.314.25.174.51.373.78.593.27.222.492.447.665.681l.289.303.26.303.636.939c.211.318.395.661.55 1.027.115.27.216.529.303.779l.274.81c.058.191.106.389.145.593.038.202.086.408.145.621.039.134.057.264.057.389 0 .127.02.246.058.362.039.116.053.237.043.359-.01.128-.004.237.016.334v.23zm-4.48 1.214c.038-.097.058-.234.058-.419 0-.183-.02-.323-.058-.42v-.489l-.015-.217c.01-.068-.004-.141-.042-.218-.04-.153-.064-.303-.073-.447-.01-.146-.034-.283-.072-.42 0-.096-.02-.201-.058-.318l-.173-.634c-.057-.213-.135-.424-.23-.637-.425-.983-1.036-1.778-1.835-2.384-.8-.607-1.913-.911-3.339-.911l-.129.016-.131.014-.23.015c-.078-.009-.165.005-.26.044-.213.037-.419.081-.621.13-.203.048-.391.109-.564.187-.809.347-1.45.83-1.921 1.446-.472.617-.853 1.356-1.142 2.224-.058.213-.101.419-.13.623-.029.202-.072.408-.13.621l-.028.216-.03.217c-.038.097-.048.202-.028.318.019.116.019.222 0 .318-.039.097-.062.274-.073.533-.01.262.004.439.044.536v.318l.029.245.028.244.014.217.016.218c.057.213.101.424.129.637.029.21.083.412.159.605.212.617.472 1.189.78 1.719.307.531.694.959 1.156 1.286.097.097.198.174.304.232l.331.174c.212.134.439.239.68.316l.766.232c.096.037.188.053.274.042.087-.009.178-.005.274.015.117.04.232.058.347.058h.606l.26-.014c.077.009.164-.004.26-.044l.578-.101c.192-.028.375-.081.549-.158.829-.329 1.479-.753 1.952-1.273.471-.52.871-1.193 1.198-2.021.097-.213.169-.443.217-.693.047-.25.111-.5.188-.753l.086-.693.029-.244v-.508zM41.662 70.283h2.456c.212 0 .419.012.621.029.202.02.351.087.448.201.097.156.149.354.159.593l.014.737v9.885000000000002l-.014.243.014.246v.463l-.014.549c-.01.193.004.366.044.521 0 .136.009.241.028.318l.101.637c.029.21.083.423.159.634.212.503.486.915.823 1.242.337.329.785.589 1.344.781.154.04.307.068.462.086.154.02.309.049.462.088.096.04.183.053.26.044l.26.013c.077.021.203.024.376.016.173-.011.289-.024.347-.044h.434c.154-.037.307-.067.462-.085.155-.021.299-.049.435-.088.27-.058.48-.125.635-.202.347-.153.651-.362.911-.621.26-.262.467-.554.621-.883.212-.5.337-1.093.376-1.775.038-.685.058-1.392.058-2.125v-9.623000000000001l-.015-.896c-.01-.327.043-.568.158-.722.097-.116.231-.188.405-.218.174-.028.365-.044.578-.044h1.85l.447-.015c.146-.009.284.006.42.044.269.059.441.155.521.289.095.154.139.371.13.65-.012.278-.016.535-.016.766v9.711c0 .73-.009 1.444-.028 2.138-.021.693-.105 1.319-.26 1.879-.27.904-.612 1.69-1.026 2.355-.415.662-.958 1.227-1.633 1.689-.598.424-1.301.771-2.109 1.041-.174.057-.352.105-.534.145l-.535.114c-.116.039-.227.06-.332.06-.106 0-.217.018-.333.057-.23.037-.49.068-.781.086-.289.02-.568.03-.837.03-1.831.018-3.391-.208-4.682-.68-1.291-.473-2.303-1.238-3.035-2.299-.25-.345-.458-.707-.621-1.082s-.314-.786-.448-1.229c-.04-.097-.058-.178-.058-.245 0-.066-.019-.149-.057-.246-.155-.538-.232-1.146-.232-1.819v-12.670000000000002c0-.183.029-.332.087-.448.115-.134.269-.23.462-.289h.117l.115-.032zM62.181 70.312h2.34l.621-.014c.202-.011.382.024.535.101.193.077.343.193.448.348l.303.461 1.041 1.648c.674 1.097 1.354 2.19 2.036 3.279.686 1.089 1.363 2.182 2.039 3.279.327.52.65 1.047.969 1.575.315.529.649 1.045.996 1.546l.218.347c.065.116.157.222.274.318l.143.116c.059.037.116.037.173 0 .137-.039.204-.125.204-.261 0-.135.018-.279.058-.433.02-.137.023-.285.015-.448l-.015-.477v-9.625l-.016-.287c-.009-.097-.004-.185.016-.261v-.318c0-.269.057-.481.173-.635.097-.136.227-.213.391-.232.163-.018.352-.028.562-.028h2.226s.29.02.404.059c.25.097.386.264.405.505.018.241.029.524.029.852v17.716l.015.635c.009.213-.026.377-.103.491-.077.116-.167.189-.274.218l-.389.101h-3.1090000000000004c-.162 0-.303-.028-.419-.085-.211-.097-.376-.227-.489-.392-.117-.164-.233-.342-.348-.535-.173-.27-.342-.544-.507-.823-.162-.278-.331-.553-.505-.823l-4.335-6.936c-.27-.443-.535-.872-.795-1.286-.261-.413-.524-.844-.794-1.287-.097-.134-.209-.303-.334-.505-.125-.201-.292-.303-.505-.303-.153.134-.237.288-.246.461l-.013.665v10.057l.013.288c.009.096-.004.192-.043.289v.318c0 .308-.049.529-.144.665-.096.114-.228.183-.391.202-.164.02-.351.028-.563.028h-2.226c-.154 0-.288-.02-.404-.057-.25-.097-.391-.271-.419-.521-.029-.25-.044-.54-.044-.867v-18.262999999999998s.039-.412.116-.548c.077-.135.211-.231.403-.29l.132-.014.132-.014zM99.98 79.935l.014.233.015.318-.015.315-.014.204-.016.389-.015.362c-.038.097-.053.193-.042.287.009.097.004.193-.016.29-.039.213-.068.424-.086.637-.02.211-.059.424-.116.634-.097.33-.184.642-.261.939-.077.299-.174.593-.288.883-.329.808-.732 1.541-1.214 2.195-.482.656-1.06 1.214-1.733 1.677-.387.27-.786.5-1.198.693-.415.193-.863.367-1.346.521-.193.057-.389.101-.593.13-.202.028-.408.072-.621.129l-.274.031-.274.028-.23.013-.262.016-.173.016-.174.013c-.153.04-.347.049-.577.028-.23-.018-.433-.028-.605-.028h-6.734c-.327 0-.602-.013-.823-.044-.222-.028-.382-.158-.477-.389-.059-.155-.083-.391-.072-.709l.014-.794v-16.963l-.014-.737c-.011-.26.033-.468.13-.621.076-.117.222-.211.433-.29l.116-.014.116-.015h7.772l.362-.014c.125-.011.234-.004.331.014h.347c.097.039.202.053.318.044s.222.004.318.043c.116.038.227.053.331.042.105-.009.218.007.334.044l.779.16c.25.049.491.121.722.216.213.096.424.184.637.261.211.077.415.174.606.287.482.31.926.608 1.33.898l.173.173c.193.154.367.327.521.521l.261.23c.095.153.207.303.332.448.125.145.234.294.331.447.25.404.472.834.665 1.286s.367.931.521 1.432c.097.25.16.509.188.779.029.27.072.54.13.81l.016.246.013.215c.04.116.053.241.044.378-.011.134.005.25.044.347v.316zm-4.508 1.387c.038-.095.058-.25.058-.461 0-.213-.02-.366-.058-.463v-.548c-.039-.174-.063-.355-.072-.549-.011-.193-.035-.367-.072-.521-.04-.097-.053-.188-.044-.274.009-.088-.004-.178-.044-.274l-.274-.882c-.086-.279-.206-.545-.36-.795-.289-.463-.621-.862-.996-1.198-.378-.338-.834-.621-1.374-.854l-.521-.157-.52-.13-.42-.044s-.263-.033-.419-.072l-.23-.016-.202-.013h-.637c-.097-.021-.201-.024-.318-.016l-.347.016h-1.299c-.04.037-.102.048-.189.028-.085-.02-.157-.02-.215 0l-.29.101c-.096.028-.173.093-.23.189-.076.096-.116.23-.116.403v.577c0 .25-.004.512-.015.781l-.014.809v8.062l-.016.378c-.009.134.005.25.044.347v.287l.016.391c.009.126.033.237.072.332.114.232.336.354.663.362s.665.015 1.012.015c.751 0 1.513-.006 2.283-.015s1.427-.121 1.967-.332c.711-.289 1.275-.676 1.689-1.156.413-.48.767-1.08 1.054-1.791.077-.156.137-.329.174-.521.039-.193.088-.387.145-.579v-.23c.04-.134.058-.279.058-.433 0-.156.02-.31.059-.463v-.291z"/></g></svg>