<?xml version="1.0" encoding="utf-8"?>
<!-- Generator: Adobe Illustrator 16.0.0, SVG Export Plug-In . SVG Version: 6.00 Build 0)  -->
<!DOCTYPE svg PUBLIC "-//W3C//DTD SVG 1.1//EN" "http://www.w3.org/Graphics/SVG/1.1/DTD/svg11.dtd">
<svg version="1.1" id="Layer_1" xmlns="http://www.w3.org/2000/svg" xmlns:xlink="http://www.w3.org/1999/xlink" x="0px" y="0px"
	 width="100px" height="100px" viewBox="0 0 100 100" enable-background="new 0 0 100 100" xml:space="preserve">
<g>
	<path fill="#FFFFFF" d="M0.713,0h2.283c0.212,0,0.423,0,0.636,0c0.212,0,0.375,0.048,0.491,0.145
		C4.277,0.26,4.378,0.419,4.426,0.622c0.047,0.202,0.101,0.41,0.159,0.621c0.077,0.27,0.144,0.544,0.202,0.824
		C4.845,2.346,4.912,2.62,4.99,2.89c0.039,0.097,0.058,0.178,0.058,0.246c0,0.068,0.01,0.149,0.029,0.246
		c0.077,0.27,0.14,0.54,0.188,0.809C5.312,4.46,5.375,4.73,5.452,5c0.076,0.212,0.135,0.434,0.173,0.665
		C5.664,5.896,5.712,6.127,5.77,6.358c0.192,0.636,0.351,1.281,0.477,1.937c0.125,0.655,0.274,1.3,0.448,1.936
		c0.096,0.289,0.168,0.578,0.217,0.867c0.047,0.29,0.111,0.578,0.188,0.867c0.077,0.231,0.135,0.429,0.173,0.592
		c0.039,0.164,0.135,0.323,0.289,0.477c0.039,0,0.062,0.005,0.073,0.015c0.009,0.01,0.033,0.005,0.072-0.015
		c0.116-0.038,0.203-0.144,0.26-0.318c0.058-0.173,0.105-0.317,0.145-0.433c0.076-0.25,0.14-0.506,0.188-0.766
		c0.047-0.26,0.12-0.515,0.217-0.766c0.019-0.096,0.038-0.188,0.058-0.274c0.019-0.086,0.038-0.178,0.058-0.275
		c0.096-0.25,0.168-0.505,0.217-0.766c0.047-0.26,0.11-0.515,0.188-0.766c0.019-0.077,0.039-0.153,0.058-0.231
		c0.019-0.077,0.039-0.164,0.058-0.26c0.058-0.174,0.106-0.352,0.145-0.535C9.334,7.461,9.382,7.282,9.44,7.109
		c0.039-0.153,0.058-0.27,0.058-0.347c0.039-0.134,0.077-0.27,0.116-0.404s0.077-0.27,0.116-0.405
		c0.174-0.539,0.318-1.083,0.434-1.633c0.115-0.549,0.25-1.093,0.405-1.632c0.096-0.27,0.168-0.54,0.216-0.81
		c0.048-0.27,0.111-0.539,0.188-0.809c0.077-0.211,0.145-0.409,0.203-0.592s0.192-0.322,0.404-0.419C11.713,0.02,11.868,0,12.041,0
		s0.347,0,0.521,0h1.705c0.212,0,0.409,0.005,0.592,0.015c0.183,0.01,0.342,0.062,0.477,0.159c0.135,0.097,0.222,0.237,0.26,0.419
		c0.039,0.183,0.087,0.371,0.145,0.563c0.096,0.347,0.183,0.699,0.26,1.055c0.076,0.356,0.163,0.708,0.26,1.055
		c0.077,0.251,0.14,0.501,0.188,0.751c0.047,0.251,0.11,0.502,0.188,0.752c0.058,0.212,0.106,0.419,0.146,0.621
		c0.037,0.203,0.095,0.41,0.172,0.621c0.212,0.713,0.395,1.441,0.55,2.182c0.153,0.742,0.336,1.469,0.549,2.182
		c0.095,0.289,0.168,0.588,0.216,0.896c0.048,0.309,0.121,0.597,0.217,0.867c0.057,0.193,0.105,0.371,0.144,0.535
		c0.039,0.164,0.106,0.313,0.203,0.448c0.019,0.02,0.067,0.048,0.144,0.086h0.116c0.019-0.019,0.039-0.033,0.057-0.043
		c0.02-0.01,0.039-0.024,0.058-0.043c0.115-0.154,0.192-0.322,0.232-0.505c0.038-0.184,0.086-0.371,0.144-0.563
		c0.097-0.308,0.169-0.617,0.217-0.925c0.048-0.309,0.12-0.617,0.216-0.925c0.25-0.847,0.458-1.695,0.622-2.543
		c0.163-0.848,0.37-1.695,0.622-2.543c0.095-0.308,0.167-0.617,0.216-0.925s0.121-0.616,0.217-0.925
		c0.039-0.096,0.057-0.178,0.057-0.245c0-0.068,0.01-0.149,0.03-0.246c0.077-0.27,0.144-0.54,0.202-0.81
		c0.058-0.269,0.125-0.539,0.202-0.809c0.039-0.154,0.083-0.328,0.131-0.52c0.047-0.193,0.129-0.337,0.246-0.434
		c0.134-0.096,0.298-0.154,0.491-0.173C23.243,0.01,23.465,0,23.716,0h1.647c0.192,0,0.379,0,0.563,0
		c0.183,0,0.342,0.029,0.477,0.087c0.192,0.096,0.279,0.26,0.26,0.492c-0.02,0.231-0.058,0.443-0.116,0.635
		c-0.154,0.443-0.284,0.91-0.39,1.401c-0.106,0.492-0.236,0.968-0.391,1.431c-0.039,0.116-0.067,0.227-0.087,0.333
		c-0.019,0.106-0.048,0.217-0.086,0.332c-0.097,0.328-0.188,0.67-0.274,1.026c-0.087,0.356-0.178,0.698-0.274,1.025
		c-0.039,0.097-0.062,0.193-0.073,0.289c-0.01,0.097-0.034,0.193-0.072,0.29c-0.097,0.25-0.168,0.501-0.216,0.751
		c-0.048,0.251-0.121,0.501-0.217,0.751c-0.038,0.096-0.057,0.183-0.057,0.26c0,0.078-0.02,0.164-0.058,0.26
		c-0.097,0.27-0.169,0.544-0.216,0.824c-0.048,0.279-0.121,0.554-0.217,0.824c-0.058,0.192-0.111,0.381-0.159,0.563
		c-0.048,0.183-0.101,0.371-0.159,0.563c-0.23,0.732-0.428,1.474-0.592,2.225c-0.165,0.751-0.372,1.484-0.621,2.196
		c-0.04,0.135-0.068,0.26-0.087,0.376c-0.02,0.115-0.048,0.241-0.086,0.375c-0.097,0.328-0.189,0.67-0.275,1.026
		c-0.087,0.356-0.188,0.699-0.303,1.025c-0.077,0.251-0.145,0.482-0.202,0.694c-0.058,0.212-0.203,0.367-0.434,0.462
		c-0.135,0.039-0.3,0.058-0.492,0.058c-0.193,0-0.375,0-0.549,0h-1.879c-0.212,0-0.415-0.004-0.607-0.014
		c-0.192-0.009-0.356-0.062-0.491-0.159c-0.116-0.096-0.193-0.217-0.231-0.361c-0.039-0.145-0.086-0.294-0.144-0.448
		c-0.116-0.385-0.212-0.766-0.29-1.142c-0.077-0.376-0.164-0.756-0.26-1.142c-0.078-0.231-0.14-0.466-0.188-0.708
		c-0.048-0.241-0.111-0.486-0.188-0.737c-0.058-0.173-0.101-0.351-0.13-0.534c-0.028-0.183-0.072-0.361-0.13-0.535
		c-0.154-0.462-0.279-0.939-0.375-1.431s-0.212-0.978-0.347-1.459c-0.097-0.27-0.169-0.53-0.217-0.78
		c-0.048-0.25-0.111-0.51-0.188-0.78c-0.097-0.328-0.173-0.646-0.231-0.954c-0.058-0.308-0.135-0.617-0.231-0.925
		c-0.058-0.154-0.101-0.298-0.13-0.434c-0.029-0.135-0.082-0.26-0.159-0.376c-0.039-0.038-0.097-0.077-0.173-0.116
		c-0.058-0.019-0.097-0.019-0.115,0c-0.135,0.039-0.231,0.155-0.289,0.347c-0.058,0.193-0.106,0.357-0.145,0.492
		c-0.135,0.405-0.241,0.823-0.318,1.257c-0.077,0.434-0.173,0.863-0.289,1.286c-0.25,0.867-0.467,1.734-0.65,2.601
		c-0.184,0.867-0.4,1.733-0.65,2.601c-0.097,0.309-0.169,0.612-0.217,0.91c-0.048,0.299-0.121,0.603-0.217,0.911
		c-0.097,0.27-0.169,0.54-0.217,0.81c-0.048,0.27-0.111,0.539-0.188,0.809c-0.058,0.193-0.111,0.366-0.159,0.52
		c-0.048,0.154-0.149,0.28-0.304,0.376c-0.135,0.077-0.299,0.115-0.491,0.115c-0.193,0-0.395,0-0.606,0H6.001
		c-0.135-0.038-0.25-0.062-0.347-0.072s-0.193-0.053-0.289-0.13c-0.155-0.097-0.251-0.255-0.29-0.477
		c-0.039-0.221-0.086-0.438-0.144-0.65c-0.097-0.308-0.188-0.626-0.275-0.954c-0.087-0.328-0.178-0.655-0.274-0.983
		c-0.039-0.115-0.062-0.226-0.072-0.332c-0.01-0.105-0.034-0.226-0.072-0.361c-0.116-0.328-0.212-0.655-0.289-0.983
		c-0.077-0.328-0.164-0.655-0.26-0.983c-0.039-0.076-0.058-0.148-0.058-0.217c0-0.067-0.01-0.139-0.029-0.216
		c-0.097-0.27-0.178-0.553-0.246-0.853c-0.068-0.298-0.149-0.593-0.246-0.881c-0.019-0.058-0.029-0.116-0.029-0.173
		c0-0.058-0.019-0.125-0.058-0.202c-0.096-0.27-0.169-0.544-0.216-0.824c-0.048-0.279-0.121-0.564-0.217-0.853
		C2.534,10.24,2.48,10.042,2.432,9.84c-0.048-0.203-0.101-0.4-0.159-0.593C2.215,9.056,2.167,8.863,2.128,8.669
		C2.09,8.478,2.032,8.285,1.955,8.092C1.782,7.533,1.632,6.965,1.507,6.387C1.382,5.809,1.233,5.241,1.06,4.682
		C1.021,4.566,0.992,4.45,0.973,4.335c-0.02-0.116-0.048-0.231-0.086-0.347C0.751,3.583,0.635,3.169,0.54,2.746
		C0.443,2.322,0.327,1.898,0.192,1.474C0.154,1.339,0.101,1.137,0.033,0.867C-0.034,0.598-0.02,0.395,0.077,0.26
		c0.097-0.115,0.231-0.192,0.405-0.231C0.52,0.01,0.558,0.005,0.597,0.015C0.635,0.025,0.674,0.02,0.713,0z"/>
	<path fill="#FFFFFF" d="M28.802,0H39.61h2.514c0.23,0,0.452,0.01,0.664,0.029C43,0.048,43.155,0.125,43.251,0.26
		c0.039,0.058,0.062,0.125,0.071,0.202c0.01,0.078,0.034,0.154,0.073,0.231v0.317c0.02,0.136,0.024,0.28,0.014,0.434
		C43.4,1.6,43.396,1.744,43.396,1.878c0,0.155,0.004,0.303,0.014,0.448c0.01,0.145,0.005,0.284-0.014,0.419
		c-0.019,0.096-0.029,0.241-0.029,0.433c-0.058,0.232-0.155,0.386-0.289,0.463c-0.116,0.077-0.26,0.115-0.434,0.115
		c-0.173,0-0.356,0-0.55,0h-1.994h-5.23c-0.154,0-0.332-0.004-0.535-0.014c-0.202-0.01-0.404-0.01-0.607,0
		c-0.202,0.01-0.39,0.029-0.563,0.058s-0.298,0.072-0.375,0.13c-0.135,0.097-0.217,0.236-0.246,0.419
		C32.515,4.533,32.5,4.74,32.5,4.971v1.647v0.838c0.039,0.154,0.077,0.285,0.116,0.39c0.039,0.106,0.105,0.188,0.202,0.246
		c0.115,0.078,0.25,0.121,0.405,0.13c0.154,0.01,0.317,0.015,0.491,0.015h1.561h4.971c0.135,0,0.304-0.004,0.506-0.015
		c0.202-0.009,0.399-0.009,0.593,0c0.192,0.01,0.37,0.024,0.535,0.043c0.163,0.02,0.284,0.058,0.361,0.116
		c0.097,0.058,0.164,0.173,0.202,0.347c0.038,0.173,0.062,0.361,0.072,0.563s0.01,0.41,0,0.622S42.5,10.308,42.5,10.461
		c0,0.135,0,0.27,0,0.405c0,0.135-0.02,0.25-0.058,0.347c-0.039,0.154-0.115,0.279-0.23,0.375c-0.097,0.058-0.228,0.097-0.391,0.116
		c-0.163,0.02-0.347,0.029-0.548,0.029c-0.202,0-0.405-0.004-0.607-0.015c-0.202-0.009-0.371-0.014-0.506-0.014h-5.635
		c-0.23,0-0.452-0.004-0.664-0.015c-0.213-0.009-0.41,0-0.593,0.029c-0.183,0.029-0.337,0.087-0.462,0.174
		c-0.126,0.086-0.217,0.217-0.274,0.39c-0.02,0.096-0.03,0.197-0.03,0.303s0,0.208,0,0.304v1.098v1.619
		c0,0.231,0.014,0.438,0.044,0.622c0.029,0.183,0.111,0.323,0.246,0.418c0.057,0.058,0.129,0.092,0.216,0.101
		c0.087,0.011,0.178,0.034,0.274,0.073h0.29c0.095,0.02,0.202,0.024,0.317,0.014c0.115-0.009,0.222-0.014,0.318-0.014h1.214h5.433
		h1.532c0.153,0,0.303,0,0.448,0c0.144,0,0.274,0.029,0.39,0.086c0.155,0.058,0.26,0.164,0.318,0.318
		c0.038,0.097,0.062,0.212,0.072,0.347c0.009,0.135,0.014,0.28,0.014,0.434v1.33c0,0.231-0.01,0.448-0.028,0.65
		c-0.02,0.202-0.106,0.352-0.26,0.448c-0.116,0.097-0.266,0.144-0.449,0.144c-0.184,0-0.38,0-0.592,0H40.13h-8.554h-2.284
		c-0.27,0-0.505-0.014-0.708-0.043c-0.202-0.029-0.352-0.121-0.448-0.274c-0.077-0.116-0.115-0.265-0.115-0.448s0-0.362,0-0.535
		v-2.081V9.334V3.035V1.243c0-0.173,0-0.347,0-0.52s0.039-0.308,0.115-0.404c0.077-0.135,0.222-0.231,0.434-0.289
		c0.039-0.02,0.077-0.024,0.115-0.015C28.724,0.025,28.763,0.02,28.802,0z"/>
	<path fill="#FFFFFF" d="M2.562,23.438h2.457c0.212,0,0.419,0.005,0.622,0.015c0.202,0.01,0.351,0.082,0.448,0.217
		c0.096,0.135,0.145,0.313,0.145,0.535c0,0.222,0,0.458,0,0.708v2.629v8.756v1.705c0,0.155-0.005,0.303-0.015,0.448
		c-0.01,0.145,0.004,0.284,0.043,0.419v0.289c0,0.135,0.004,0.265,0.015,0.39c0.009,0.125,0.033,0.236,0.072,0.333
		c0.135,0.25,0.405,0.375,0.81,0.375c0.404,0,0.799,0,1.185,0h5.607c0.153,0,0.346-0.004,0.578-0.015
		c0.231-0.009,0.452-0.009,0.665,0c0.212,0.01,0.409,0.034,0.593,0.072c0.183,0.039,0.303,0.097,0.361,0.173
		c0.096,0.116,0.145,0.26,0.145,0.434c0,0.173,0,0.356,0,0.549v1.329c0,0.155,0.004,0.299,0.015,0.434
		c0.009,0.135-0.005,0.251-0.043,0.347c-0.077,0.154-0.173,0.26-0.289,0.318c-0.097,0.077-0.241,0.115-0.434,0.115
		c-0.192,0-0.376,0-0.549,0h-2.052H5.105H3.024c-0.27,0-0.506-0.014-0.708-0.043c-0.203-0.029-0.352-0.121-0.448-0.274
		c-0.077-0.116-0.115-0.265-0.115-0.448s0-0.362,0-0.535V40.69v-7.658v-6.531v-1.82c0-0.174,0.004-0.347,0.014-0.521
		c0.009-0.173,0.043-0.308,0.101-0.404c0.077-0.135,0.231-0.231,0.462-0.289c0.039-0.02,0.077-0.024,0.116-0.015
		C2.485,23.462,2.523,23.458,2.562,23.438z"/>
	<path fill="#FFFFFF" d="M18.629,23.467h2.485c0.213,0,0.415,0.005,0.608,0.014c0.191,0.01,0.336,0.082,0.432,0.217
		c0.097,0.135,0.149,0.308,0.161,0.52c0.009,0.212,0.013,0.443,0.013,0.694v2.514v10.028v4.74c0,0.25,0.004,0.53,0.015,0.838
		c0.009,0.308-0.035,0.539-0.129,0.693c-0.079,0.135-0.252,0.241-0.521,0.318c-0.136,0.039-0.281,0.048-0.435,0.029
		c-0.153-0.02-0.307-0.029-0.463-0.029h-1.704c-0.213,0-0.41-0.009-0.592-0.029c-0.185-0.019-0.334-0.077-0.448-0.173
		c-0.097-0.096-0.156-0.24-0.173-0.434c-0.02-0.192-0.029-0.395-0.029-0.607v-2.514V29.738v-4.219c0-0.27-0.006-0.588-0.015-0.954
		c-0.011-0.365,0.033-0.625,0.129-0.78c0.077-0.115,0.202-0.211,0.375-0.289c0.059,0,0.112-0.005,0.16-0.015
		C18.548,23.472,18.59,23.467,18.629,23.467z"/>
	<path fill="#FFFFFF" d="M26.201,23.438h2.226c0.365,0,0.674,0.015,0.924,0.043c0.25,0.029,0.424,0.198,0.521,0.506
		c0.02,0.097,0.029,0.198,0.029,0.304c0,0.105,0,0.216,0,0.332v1.156v3.757v0.636c0,0.173,0,0.347,0,0.52s0.029,0.328,0.087,0.462
		c0.019,0.039,0.053,0.078,0.101,0.116c0.047,0.039,0.091,0.058,0.129,0.058c0.135,0.039,0.265,0,0.391-0.115
		c0.125-0.116,0.216-0.202,0.274-0.26c0.154-0.154,0.307-0.309,0.462-0.463c0.154-0.154,0.299-0.317,0.434-0.491
		c0.058-0.039,0.135-0.106,0.232-0.203c0.077-0.077,0.153-0.159,0.23-0.246c0.077-0.086,0.145-0.178,0.203-0.275
		c0.039-0.038,0.077-0.067,0.115-0.086c0.039-0.019,0.077-0.048,0.115-0.087c0.097-0.153,0.212-0.284,0.347-0.39
		c0.135-0.105,0.25-0.226,0.347-0.361c0.116-0.154,0.222-0.279,0.318-0.376c0.038-0.019,0.086-0.058,0.145-0.115
		c0.23-0.308,0.491-0.588,0.78-0.838c0.289-0.25,0.549-0.53,0.781-0.838l0.144-0.145c0.058-0.058,0.116-0.116,0.173-0.173
		c0.058-0.058,0.116-0.125,0.173-0.203c0.019-0.038,0.039-0.062,0.058-0.072c0.019-0.01,0.047-0.034,0.087-0.072
		c0.115-0.077,0.202-0.183,0.26-0.318c0.038-0.039,0.086-0.077,0.145-0.116c0.057-0.039,0.105-0.077,0.144-0.116
		c0.058-0.096,0.125-0.183,0.202-0.26c0.077-0.076,0.155-0.163,0.232-0.26c0.038-0.038,0.072-0.067,0.101-0.086
		c0.03-0.019,0.063-0.048,0.101-0.086c0.135-0.192,0.29-0.361,0.463-0.506c0.173-0.144,0.394-0.246,0.664-0.303
		c0.154-0.039,0.333-0.053,0.535-0.043c0.202,0.01,0.39,0.014,0.563,0.014h2.226c0.21,0,0.438-0.004,0.678-0.014
		c0.241-0.009,0.429,0.034,0.564,0.13c0.115,0.097,0.144,0.208,0.087,0.333c-0.058,0.125-0.106,0.227-0.145,0.304
		c-0.097,0.097-0.193,0.188-0.289,0.274c-0.097,0.086-0.193,0.178-0.29,0.274c-0.135,0.155-0.264,0.299-0.389,0.433
		c-0.125,0.135-0.266,0.27-0.419,0.405c-0.674,0.675-1.349,1.358-2.023,2.052c-0.675,0.693-1.349,1.378-2.022,2.052
		c-0.309,0.347-0.637,0.675-0.982,0.983c-0.136,0.135-0.26,0.265-0.376,0.39c-0.115,0.125-0.192,0.294-0.23,0.506
		c-0.04,0.154-0.011,0.303,0.087,0.448c0.096,0.144,0.173,0.265,0.23,0.361c0.192,0.29,0.391,0.574,0.593,0.853
		c0.202,0.279,0.399,0.563,0.592,0.852c0.809,1.156,1.618,2.298,2.428,3.425c0.809,1.127,1.618,2.269,2.427,3.424l1.041,1.474
		c0.077,0.116,0.159,0.227,0.246,0.333c0.087,0.106,0.169,0.217,0.246,0.332c0.058,0.097,0.125,0.231,0.202,0.405
		c0.077,0.173,0.048,0.308-0.086,0.404c-0.135,0.097-0.327,0.144-0.578,0.144c-0.251,0-0.481,0-0.693,0h-2.283
		c-0.213,0-0.425,0.005-0.637,0.015s-0.404-0.005-0.577-0.043c-0.213-0.077-0.381-0.188-0.506-0.333
		c-0.126-0.145-0.246-0.304-0.361-0.477c-0.116-0.153-0.227-0.312-0.333-0.477c-0.106-0.164-0.217-0.332-0.333-0.505
		c-0.52-0.81-1.05-1.599-1.589-2.37c-0.54-0.771-1.079-1.561-1.619-2.37c-0.212-0.328-0.418-0.646-0.621-0.954
		c-0.202-0.308-0.409-0.616-0.621-0.925c-0.077-0.097-0.173-0.207-0.289-0.333c-0.117-0.125-0.27-0.168-0.463-0.13
		c-0.192,0.058-0.385,0.188-0.577,0.39c-0.193,0.203-0.357,0.371-0.492,0.506c-0.097,0.097-0.193,0.198-0.289,0.304
		c-0.097,0.105-0.193,0.207-0.289,0.303c-0.135,0.135-0.26,0.265-0.376,0.39c-0.115,0.125-0.212,0.274-0.289,0.448
		c-0.058,0.115-0.092,0.241-0.101,0.375c-0.01,0.135-0.015,0.28-0.015,0.434v0.375c-0.02,0.097-0.025,0.208-0.015,0.333
		c0.01,0.125,0.015,0.236,0.015,0.332v1.358v2.052c0,0.212-0.005,0.415-0.015,0.606c-0.01,0.193-0.062,0.347-0.158,0.462
		c-0.096,0.116-0.241,0.184-0.433,0.203c-0.193,0.019-0.396,0.028-0.607,0.028h-1.966c-0.212,0-0.415-0.004-0.607-0.014
		c-0.193-0.009-0.356-0.062-0.491-0.159c-0.135-0.096-0.203-0.274-0.203-0.534c0-0.26,0-0.516,0-0.766v-3.353V27.657v-2.688
		c0-0.212-0.004-0.434-0.015-0.665c-0.01-0.231,0.024-0.414,0.101-0.549c0.116-0.135,0.27-0.231,0.463-0.289
		c0.037-0.02,0.076-0.024,0.115-0.015C26.124,23.462,26.163,23.458,26.201,23.438z"/>
	<path fill="#FFFFFF" d="M46.025,23.438h10.809h2.515c0.23,0,0.452,0.01,0.663,0.029c0.213,0.019,0.367,0.096,0.463,0.231
		c0.04,0.058,0.062,0.125,0.073,0.202c0.009,0.078,0.032,0.154,0.072,0.231v0.317c0.02,0.136,0.024,0.28,0.013,0.434
		c-0.009,0.155-0.013,0.299-0.013,0.434c0,0.155,0.004,0.303,0.013,0.448c0.012,0.145,0.007,0.284-0.013,0.419
		c-0.02,0.096-0.028,0.241-0.028,0.433c-0.06,0.232-0.156,0.386-0.29,0.463c-0.116,0.077-0.259,0.115-0.433,0.115
		c-0.173,0-0.357,0-0.551,0h-1.994h-5.23c-0.153,0-0.331-0.004-0.534-0.014c-0.202-0.009-0.404-0.009-0.608,0
		c-0.202,0.01-0.39,0.029-0.563,0.058s-0.298,0.072-0.375,0.13c-0.135,0.097-0.217,0.236-0.246,0.419
		c-0.03,0.183-0.044,0.39-0.044,0.621v1.647v0.838c0.039,0.155,0.077,0.285,0.116,0.39c0.039,0.106,0.105,0.188,0.202,0.246
		c0.115,0.078,0.25,0.121,0.405,0.13c0.154,0.01,0.317,0.014,0.491,0.014h1.562h4.971c0.135,0,0.304-0.004,0.505-0.014
		c0.202-0.01,0.399-0.01,0.593,0s0.371,0.024,0.536,0.043c0.162,0.02,0.283,0.058,0.359,0.116c0.097,0.058,0.165,0.174,0.202,0.347
		c0.04,0.173,0.063,0.361,0.072,0.563c0.011,0.202,0.011,0.41,0,0.622c-0.009,0.212-0.013,0.395-0.013,0.549c0,0.135,0,0.27,0,0.405
		c0,0.135-0.02,0.25-0.06,0.347c-0.037,0.154-0.114,0.279-0.23,0.375c-0.097,0.058-0.226,0.097-0.391,0.116
		c-0.162,0.02-0.347,0.029-0.549,0.029s-0.403-0.004-0.605-0.014s-0.371-0.015-0.507-0.015h-5.636c-0.23,0-0.452-0.004-0.664-0.015
		c-0.214-0.009-0.41,0-0.593,0.029c-0.184,0.029-0.337,0.086-0.462,0.173c-0.126,0.086-0.217,0.217-0.274,0.39
		c-0.02,0.097-0.03,0.197-0.03,0.303s0,0.208,0,0.304v1.098v1.618c0,0.231,0.014,0.438,0.044,0.622
		c0.028,0.183,0.111,0.323,0.246,0.418c0.057,0.058,0.129,0.092,0.216,0.101c0.087,0.011,0.178,0.034,0.274,0.073h0.29
		c0.096,0.02,0.202,0.024,0.318,0.014c0.115-0.009,0.222-0.014,0.318-0.014h1.214h5.433h1.532c0.153,0,0.303,0,0.447,0
		c0.146,0,0.274,0.029,0.391,0.086c0.154,0.058,0.259,0.164,0.318,0.318c0.037,0.097,0.062,0.212,0.072,0.347
		c0.009,0.135,0.014,0.28,0.014,0.434v1.33c0,0.231-0.009,0.448-0.028,0.65c-0.021,0.202-0.105,0.352-0.26,0.448
		c-0.116,0.097-0.266,0.144-0.449,0.144c-0.183,0-0.38,0-0.591,0h-2.168h-8.555h-2.284c-0.27,0-0.505-0.014-0.708-0.043
		c-0.202-0.029-0.351-0.121-0.448-0.274c-0.077-0.116-0.115-0.265-0.115-0.448s0-0.362,0-0.535v-2.081v-7.86v-6.3v-1.792
		c0-0.174,0-0.347,0-0.521s0.039-0.308,0.115-0.404c0.077-0.135,0.222-0.231,0.434-0.289c0.039-0.02,0.077-0.024,0.115-0.015
		C45.947,23.462,45.985,23.458,46.025,23.438z"/>
	<path fill="#FFFFFF" d="M12.503,46.875h2.948c0.25,0,0.496,0.005,0.737,0.015s0.438,0.062,0.593,0.158
		c0.057,0.039,0.101,0.102,0.129,0.189c0.029,0.086,0.053,0.178,0.072,0.273v0.145c0.019,0.078,0.029,0.164,0.029,0.26
		c0,0.098,0,0.193,0,0.289v1.128c0,0.135,0.004,0.265,0.014,0.39s-0.005,0.246-0.043,0.361c-0.096,0.327-0.289,0.501-0.578,0.521
		s-0.636,0.028-1.041,0.028h-2.948c-0.385,0-0.718,0.015-0.997,0.044c-0.28,0.028-0.468,0.207-0.563,0.534
		c-0.02,0.097-0.02,0.184,0,0.261c0.019,0.076,0.009,0.163-0.029,0.26c-0.019,0.115-0.024,0.245-0.014,0.39
		c0.009,0.145,0.014,0.274,0.014,0.391v2.572v8.323v2.716c0,0.31-0.014,0.572-0.043,0.794c-0.029,0.222-0.149,0.383-0.361,0.477
		c-0.135,0.04-0.289,0.06-0.462,0.06c-0.174,0-0.338,0-0.491,0H7.504c-0.212,0-0.41-0.011-0.592-0.028
		c-0.184-0.021-0.323-0.088-0.419-0.204c-0.097-0.154-0.145-0.352-0.145-0.593c0-0.239,0-0.485,0-0.735v-2.891v-8.034v-2.456
		c0-0.135,0.004-0.275,0.015-0.419c0.01-0.145-0.005-0.274-0.043-0.391c-0.02-0.096-0.02-0.183,0-0.26
		c0.019-0.077,0.009-0.154-0.029-0.231c-0.096-0.327-0.294-0.506-0.592-0.534c-0.299-0.029-0.65-0.044-1.055-0.044H1.955
		c-0.212,0-0.448,0.005-0.708,0.015c-0.26,0.01-0.467-0.004-0.621-0.043c-0.155-0.059-0.27-0.145-0.347-0.26
		c-0.058-0.097-0.092-0.222-0.101-0.376c-0.01-0.154-0.015-0.309-0.015-0.463v-1.416c0-0.25,0.015-0.472,0.043-0.664
		c0.029-0.193,0.12-0.338,0.275-0.434c0.058-0.039,0.163-0.077,0.317-0.116h0.145H12.503z"/>
	<path fill="#FFFFFF" d="M19.207,46.875h2.313c0.327,0,0.61,0.015,0.852,0.044c0.242,0.029,0.409,0.178,0.505,0.447
		c0.04,0.098,0.06,0.198,0.06,0.305c0,0.105,0,0.206,0,0.303v1.012v3.496c0,0.328-0.011,0.699-0.029,1.112
		c-0.02,0.415,0.046,0.728,0.202,0.939c0.097,0.116,0.206,0.179,0.332,0.188c0.125,0.011,0.266,0.034,0.419,0.073h5.549
		c0.347,0,0.702-0.005,1.069-0.015c0.366-0.01,0.617-0.13,0.75-0.361c0.097-0.174,0.136-0.434,0.116-0.78
		c-0.02-0.348-0.028-0.655-0.028-0.925v-3.757c0-0.289-0.004-0.625-0.015-1.012c-0.009-0.385,0.052-0.654,0.188-0.809
		c0.057-0.097,0.178-0.164,0.36-0.203c0.185-0.037,0.391-0.062,0.622-0.072c0.232-0.009,0.463-0.009,0.693,0
		c0.233,0.01,0.435,0.015,0.608,0.015c0.327,0,0.669-0.005,1.025-0.015c0.357-0.009,0.621,0.062,0.794,0.217
		c0.136,0.098,0.202,0.256,0.202,0.478s0,0.438,0,0.649v2.833v11.818v3.15c0,0.232,0,0.474,0,0.724c0,0.251-0.065,0.424-0.202,0.521
		c-0.173,0.153-0.448,0.227-0.823,0.215c-0.375-0.009-0.727-0.013-1.054-0.013c-0.173,0-0.373,0.004-0.592,0.013
		c-0.222,0.012-0.443,0.012-0.665,0c-0.222-0.009-0.424-0.028-0.608-0.057c-0.182-0.028-0.303-0.092-0.36-0.188
		c-0.059-0.077-0.101-0.207-0.129-0.389c-0.031-0.185-0.048-0.378-0.059-0.58c-0.009-0.201-0.009-0.403,0-0.605
		c0.011-0.202,0.015-0.38,0.015-0.535v-4.19v-0.839c0-0.076,0.004-0.153,0.013-0.23c0.011-0.076,0.004-0.153-0.013-0.23v-0.29
		c-0.02-0.057-0.028-0.116-0.028-0.173c0-0.058-0.011-0.116-0.031-0.174c-0.134-0.27-0.384-0.403-0.751-0.403s-0.742,0-1.126,0
		h-5.694c-0.153,0.039-0.279,0.072-0.375,0.101c-0.096,0.028-0.184,0.102-0.261,0.218c-0.038,0.097-0.077,0.239-0.114,0.432v0.29
		c-0.02,0.097-0.024,0.206-0.016,0.332c0.009,0.125,0.016,0.236,0.016,0.333v1.271v3.988c0,0.287,0,0.597,0,0.924
		s-0.06,0.577-0.173,0.751c-0.06,0.097-0.18,0.16-0.362,0.188s-0.386,0.048-0.606,0.057c-0.222,0.012-0.448,0.012-0.68,0
		c-0.23-0.009-0.433-0.013-0.606-0.013c-0.27,0-0.597,0.004-0.983,0.013c-0.386,0.012-0.654-0.041-0.808-0.157
		c-0.156-0.117-0.242-0.299-0.261-0.549c-0.02-0.251-0.029-0.512-0.029-0.782v-3.323V51.095v-2.688c0-0.213,0-0.434,0-0.665
		s0.038-0.414,0.117-0.549c0.074-0.135,0.21-0.231,0.404-0.289c0.037,0,0.081-0.005,0.129-0.015S19.169,46.875,19.207,46.875z"/>
	<path fill="#FFFFFF" d="M56.257,66.094c0.019,0.076,0.053,0.173,0.101,0.289c0.049,0.114,0.087,0.235,0.117,0.36
		c0.028,0.125,0.032,0.246,0.014,0.362c-0.02,0.114-0.087,0.202-0.203,0.259c-0.153,0.097-0.409,0.136-0.765,0.116
		c-0.356-0.02-0.651-0.028-0.882-0.028H53.28c-0.154,0-0.294,0.004-0.419,0.013c-0.125,0.012-0.246-0.004-0.361-0.041
		c-0.212-0.06-0.366-0.174-0.462-0.347c-0.097-0.156-0.169-0.318-0.218-0.492c-0.048-0.174-0.11-0.347-0.188-0.521
		c-0.097-0.31-0.197-0.616-0.303-0.926c-0.106-0.308-0.217-0.606-0.333-0.896c-0.058-0.174-0.111-0.332-0.159-0.477
		s-0.101-0.274-0.159-0.391c-0.058-0.114-0.145-0.215-0.26-0.303c-0.115-0.086-0.27-0.149-0.462-0.187
		c-0.096,0-0.188-0.007-0.274-0.016c-0.086-0.009-0.179-0.016-0.274-0.016h-4.567c-0.328,0-0.679-0.004-1.055-0.013
		c-0.375-0.011-0.669,0.062-0.881,0.217c-0.155,0.114-0.26,0.271-0.318,0.461c-0.057,0.193-0.125,0.387-0.202,0.577
		c-0.155,0.33-0.284,0.672-0.39,1.027c-0.106,0.355-0.227,0.707-0.362,1.054c-0.077,0.193-0.149,0.396-0.216,0.608
		c-0.068,0.213-0.179,0.375-0.333,0.491c-0.097,0.077-0.236,0.13-0.419,0.158c-0.184,0.028-0.385,0.044-0.607,0.044
		s-0.448-0.004-0.678-0.016c-0.232-0.009-0.434-0.013-0.607-0.013c-0.251,0-0.554,0.004-0.911,0.013
		c-0.356,0.012-0.611-0.032-0.766-0.129c-0.097-0.058-0.149-0.146-0.159-0.259c-0.01-0.117,0-0.237,0.03-0.362
		c0.028-0.125,0.062-0.246,0.101-0.362c0.038-0.114,0.077-0.211,0.115-0.288c0.193-0.443,0.371-0.896,0.534-1.358
		s0.333-0.915,0.506-1.358c0.077-0.154,0.135-0.308,0.173-0.461c0.038-0.156,0.096-0.31,0.173-0.464
		c0.155-0.403,0.308-0.818,0.463-1.242c0.154-0.424,0.308-0.838,0.462-1.242c0.153-0.386,0.298-0.766,0.433-1.142
		c0.134-0.377,0.279-0.757,0.434-1.141c0.442-1.062,0.853-2.13,1.228-3.21c0.375-1.078,0.785-2.147,1.229-3.208
		c0.038-0.096,0.067-0.183,0.086-0.26c0.019-0.076,0.048-0.163,0.087-0.26c0.153-0.404,0.308-0.818,0.462-1.243
		c0.155-0.423,0.318-0.838,0.492-1.242c0.097-0.211,0.178-0.428,0.246-0.65c0.067-0.221,0.188-0.399,0.361-0.535
		c0.095-0.057,0.221-0.104,0.375-0.144c0.038-0.02,0.077-0.024,0.115-0.015c0.038,0.01,0.077,0.006,0.116-0.015h2.543
		c0.211,0,0.428-0.005,0.649-0.015c0.222-0.009,0.401,0.035,0.536,0.131c0.212,0.115,0.351,0.283,0.418,0.506
		c0.068,0.222,0.149,0.447,0.246,0.679c0.135,0.328,0.26,0.649,0.376,0.968c0.115,0.318,0.24,0.641,0.375,0.969
		c0.038,0.115,0.077,0.231,0.115,0.347c0.038,0.115,0.077,0.23,0.115,0.346c0.155,0.387,0.298,0.767,0.433,1.143
		c0.136,0.375,0.281,0.756,0.435,1.142c0.386,0.963,0.747,1.936,1.085,2.919c0.337,0.982,0.707,1.955,1.112,2.919
		c0.038,0.077,0.062,0.149,0.071,0.217c0.01,0.066,0.034,0.139,0.072,0.216c0.116,0.31,0.231,0.616,0.347,0.926
		c0.117,0.308,0.232,0.617,0.348,0.925c0.076,0.153,0.135,0.303,0.173,0.447s0.087,0.294,0.145,0.448
		c0.251,0.616,0.481,1.233,0.694,1.85c0.212,0.617,0.442,1.223,0.693,1.82c0.038,0.057,0.057,0.111,0.057,0.16
		C56.198,65.983,56.219,66.036,56.257,66.094z M48.771,59.476c0.25-0.097,0.365-0.262,0.347-0.492s-0.077-0.452-0.173-0.665
		c-0.039-0.076-0.057-0.149-0.057-0.215c0-0.068-0.02-0.141-0.058-0.217c-0.25-0.655-0.482-1.32-0.693-1.995
		c-0.212-0.674-0.454-1.349-0.722-2.022c-0.04-0.097-0.078-0.217-0.117-0.362c-0.038-0.144-0.086-0.278-0.144-0.404
		c-0.058-0.125-0.126-0.235-0.203-0.332s-0.173-0.145-0.289-0.145c-0.039,0.039-0.077,0.068-0.115,0.087
		c-0.04,0.02-0.078,0.048-0.116,0.087c-0.154,0.192-0.265,0.424-0.332,0.693c-0.068,0.27-0.15,0.53-0.246,0.78
		c-0.231,0.539-0.439,1.089-0.621,1.647c-0.183,0.559-0.381,1.117-0.593,1.676c-0.078,0.193-0.145,0.382-0.202,0.563
		c-0.058,0.183-0.116,0.38-0.173,0.593c-0.058,0.154-0.048,0.327,0.028,0.521c0.096,0.134,0.255,0.211,0.477,0.23
		s0.448,0.028,0.679,0.028h2.196c0.173,0,0.366,0,0.578,0S48.617,59.515,48.771,59.476z"/>
	<path fill="#FFFFFF" d="M65.677,46.875h2.948c0.25,0,0.496,0.005,0.737,0.015c0.242,0.01,0.439,0.062,0.593,0.158
		c0.058,0.039,0.102,0.102,0.13,0.189c0.028,0.086,0.053,0.178,0.072,0.273v0.145c0.02,0.078,0.028,0.164,0.028,0.26
		c0,0.098,0,0.193,0,0.289v1.128c0,0.135,0.005,0.265,0.016,0.39c0.009,0.125-0.005,0.246-0.044,0.361
		c-0.097,0.327-0.29,0.501-0.577,0.521c-0.29,0.02-0.637,0.028-1.041,0.028h-2.947c-0.387,0-0.718,0.015-0.997,0.044
		c-0.28,0.028-0.467,0.207-0.563,0.534c-0.021,0.097-0.021,0.184,0,0.261c0.02,0.076,0.009,0.163-0.029,0.26
		c-0.02,0.115-0.023,0.245-0.015,0.39s0.015,0.274,0.015,0.391v2.572v8.323v2.716c0,0.31-0.015,0.572-0.043,0.794
		c-0.029,0.222-0.149,0.383-0.362,0.477c-0.134,0.04-0.288,0.06-0.461,0.06c-0.174,0-0.339,0-0.492,0H60.68
		c-0.214,0-0.411-0.011-0.593-0.028c-0.185-0.021-0.323-0.088-0.42-0.204c-0.097-0.154-0.145-0.352-0.145-0.593
		c0-0.239,0-0.485,0-0.735v-2.891v-8.034v-2.456c0-0.135,0.004-0.275,0.016-0.419c0.009-0.145-0.007-0.274-0.044-0.391
		c-0.02-0.096-0.02-0.183,0-0.26s0.009-0.154-0.028-0.231c-0.097-0.327-0.295-0.506-0.593-0.534
		c-0.299-0.029-0.65-0.044-1.056-0.044H55.13c-0.212,0-0.448,0.005-0.708,0.015s-0.468-0.004-0.621-0.043
		c-0.155-0.059-0.271-0.145-0.347-0.26c-0.059-0.097-0.093-0.222-0.102-0.376c-0.01-0.154-0.014-0.309-0.014-0.463v-1.416
		c0-0.25,0.014-0.472,0.043-0.664c0.028-0.193,0.12-0.338,0.274-0.434c0.058-0.039,0.163-0.077,0.317-0.116h0.146H65.677z"/>
	<path fill="#FFFFFF" d="M8.544,69.88c3.737-0.06,6.309,1.049,7.716,3.323c0.192,0.307,0.341,0.625,0.448,0.952
		c0.106,0.329,0.207,0.686,0.304,1.069c0.039,0.155,0.053,0.334,0.044,0.535c-0.011,0.202-0.054,0.352-0.131,0.448
		c-0.097,0.116-0.231,0.188-0.404,0.217c-0.173,0.029-0.367,0.042-0.578,0.042h-1.82c-0.173,0-0.347,0-0.521,0
		s-0.318-0.018-0.433-0.057c-0.232-0.097-0.376-0.251-0.434-0.461c-0.058-0.213-0.135-0.424-0.232-0.637
		c-0.077-0.193-0.183-0.396-0.317-0.608c-0.135-0.211-0.279-0.375-0.434-0.489c-0.27-0.193-0.53-0.357-0.78-0.492
		c-0.231-0.096-0.515-0.178-0.853-0.245c-0.337-0.068-0.684-0.112-1.04-0.13c-0.357-0.02-0.708-0.011-1.055,0.028
		c-0.347,0.038-0.655,0.114-0.925,0.23c-0.443,0.193-0.785,0.42-1.026,0.679c-0.241,0.261-0.409,0.651-0.506,1.172
		c-0.039,0.134-0.048,0.283-0.028,0.448c0.019,0.162,0.048,0.294,0.086,0.391c0.154,0.403,0.371,0.687,0.65,0.852
		c0.279,0.164,0.611,0.322,0.997,0.477c0.212,0.096,0.429,0.169,0.65,0.217c0.221,0.049,0.448,0.109,0.679,0.187
		c0.52,0.174,1.055,0.325,1.604,0.45c0.549,0.125,1.093,0.264,1.632,0.417c0.096,0.039,0.193,0.06,0.29,0.06
		c0.096,0,0.192,0.02,0.289,0.057c0.385,0.136,0.785,0.262,1.2,0.375c0.414,0.117,0.785,0.281,1.112,0.492
		c0.52,0.327,0.968,0.656,1.344,0.983c0.376,0.327,0.727,0.751,1.055,1.271c0.097,0.154,0.179,0.327,0.246,0.521
		s0.14,0.387,0.216,0.577c0.02,0.058,0.03,0.112,0.03,0.16c0,0.049,0.01,0.09,0.028,0.13c0.077,0.307,0.117,0.693,0.117,1.154
		c0.037,0.097,0.037,0.193,0,0.29v0.52c-0.04,0.214-0.074,0.415-0.103,0.608c-0.028,0.191-0.072,0.384-0.129,0.577
		c-0.116,0.347-0.241,0.665-0.375,0.953c-0.136,0.289-0.3,0.568-0.492,0.838c-0.078,0.097-0.155,0.178-0.231,0.246
		c-0.077,0.068-0.145,0.149-0.202,0.246c-0.097,0.116-0.203,0.226-0.318,0.331c-0.116,0.107-0.241,0.209-0.376,0.306
		c-0.097,0.076-0.197,0.153-0.303,0.23c-0.106,0.076-0.217,0.153-0.333,0.23c-0.328,0.213-0.669,0.386-1.026,0.52
		c-0.356,0.137-0.728,0.271-1.113,0.406c-0.27,0.095-0.549,0.158-0.838,0.187s-0.578,0.072-0.867,0.13
		c-0.135,0.039-0.265,0.053-0.39,0.044c-0.125-0.009-0.245,0.004-0.361,0.044h-0.231c-0.039,0-0.092-0.005-0.159-0.016
		c-0.067-0.009-0.121-0.005-0.159,0.016c-0.097,0.02-0.26,0.028-0.491,0.028s-0.395-0.009-0.491-0.028H8.486
		c-0.135-0.04-0.274-0.053-0.419-0.044s-0.275-0.005-0.39-0.044c-0.096,0-0.183-0.005-0.26-0.014
		c-0.078-0.011-0.164-0.023-0.26-0.044c-0.231-0.057-0.473-0.105-0.723-0.145c-0.251-0.037-0.482-0.097-0.694-0.174
		c-0.944-0.307-1.772-0.697-2.485-1.17c-0.713-0.472-1.311-1.093-1.792-1.863c-0.308-0.463-0.549-1.012-0.722-1.648
		c-0.039-0.114-0.063-0.23-0.072-0.347c-0.01-0.114-0.034-0.239-0.072-0.375c-0.039-0.154-0.068-0.341-0.087-0.562
		s0.019-0.391,0.116-0.507c0.096-0.153,0.235-0.246,0.419-0.274c0.183-0.028,0.39-0.044,0.621-0.044h1.821c0.154,0,0.318,0,0.491,0
		s0.327,0.028,0.462,0.088c0.212,0.097,0.337,0.255,0.376,0.477c0.038,0.222,0.106,0.447,0.202,0.678
		c0.077,0.233,0.174,0.443,0.289,0.637c0.116,0.193,0.241,0.376,0.375,0.549c0.096,0.116,0.203,0.222,0.318,0.318
		c0.116,0.097,0.231,0.185,0.347,0.261c0.424,0.271,0.944,0.49,1.561,0.663c0.134,0.04,0.264,0.06,0.39,0.06
		c0.125,0,0.264,0.02,0.419,0.057h0.145c0.153,0.04,0.365,0.058,0.635,0.058s0.482-0.018,0.636-0.058
		c0.058-0.02,0.154-0.028,0.289-0.028c0.096-0.02,0.197-0.033,0.303-0.044c0.105-0.009,0.207-0.032,0.304-0.072
		c0.655-0.174,1.175-0.404,1.56-0.693c0.385-0.288,0.655-0.771,0.81-1.444c0.038-0.134,0.043-0.29,0.014-0.463
		c-0.029-0.174-0.062-0.308-0.101-0.404c-0.192-0.521-0.52-0.924-0.983-1.214c-0.058-0.039-0.164-0.097-0.317-0.174
		c-0.29-0.173-0.612-0.313-0.968-0.419s-0.708-0.217-1.055-0.331c-0.135-0.04-0.265-0.072-0.39-0.102
		c-0.125-0.03-0.265-0.063-0.419-0.101c-0.308-0.097-0.621-0.18-0.938-0.246c-0.318-0.067-0.622-0.149-0.911-0.246
		c-0.097-0.039-0.173-0.059-0.231-0.059c-0.058,0-0.125-0.018-0.202-0.058c-0.155-0.037-0.294-0.076-0.419-0.114
		c-0.126-0.039-0.265-0.076-0.419-0.116c-0.444-0.153-0.867-0.313-1.272-0.476c-0.404-0.165-0.78-0.352-1.126-0.564
		c-0.444-0.29-0.848-0.626-1.214-1.012c-0.367-0.385-0.655-0.828-0.867-1.33c-0.077-0.174-0.135-0.352-0.173-0.533
		c-0.039-0.183-0.086-0.38-0.145-0.593c-0.039-0.174-0.068-0.424-0.087-0.751s-0.01-0.597,0.029-0.81
		c0.019-0.077,0.029-0.193,0.029-0.348c0.058-0.21,0.105-0.414,0.145-0.605c0.038-0.193,0.096-0.387,0.173-0.579
		c0.289-0.674,0.66-1.247,1.113-1.719c0.452-0.472,0.978-0.9,1.575-1.286c0.385-0.23,0.799-0.415,1.243-0.549
		c0.443-0.134,0.915-0.262,1.416-0.376c0.192-0.039,0.38-0.063,0.564-0.072c0.183-0.011,0.37-0.033,0.563-0.072
		c0.058-0.02,0.148-0.02,0.274,0C8.424,69.928,8.505,69.917,8.544,69.88z"/>
	<path fill="#FFFFFF" d="M38.83,79.906c0.038,0.116,0.061,0.314,0.071,0.593c0.01,0.278-0.004,0.477-0.043,0.593v0.375
		C38.82,81.66,38.8,81.862,38.8,82.075c0,0.211-0.019,0.424-0.057,0.634c-0.04,0.137-0.068,0.271-0.087,0.404
		c-0.02,0.136-0.048,0.272-0.086,0.406c-0.097,0.347-0.188,0.683-0.274,1.012c-0.087,0.327-0.199,0.646-0.333,0.952
		c-0.579,1.351-1.359,2.472-2.341,3.367c-0.982,0.896-2.196,1.585-3.642,2.065c-0.212,0.077-0.424,0.137-0.636,0.174
		c-0.213,0.039-0.424,0.077-0.636,0.116c-0.097,0.037-0.198,0.058-0.303,0.058c-0.106,0-0.207,0.011-0.303,0.028l-0.954,0.088
		c-0.078,0.02-0.213,0.023-0.405,0.013c-0.193-0.009-0.318-0.024-0.375-0.041c-0.097-0.021-0.189-0.024-0.275-0.016
		c-0.086,0.009-0.178,0.004-0.274-0.014h-0.317c-0.155-0.039-0.3-0.063-0.434-0.072c-0.135-0.011-0.28-0.035-0.434-0.072
		c-0.155-0.04-0.308-0.072-0.463-0.101c-0.154-0.031-0.309-0.064-0.462-0.102c-0.212-0.077-0.429-0.155-0.65-0.232
		c-0.222-0.077-0.439-0.162-0.651-0.259c-1.156-0.501-2.133-1.17-2.933-2.009c-0.8-0.839-1.451-1.835-1.951-2.992
		c-0.115-0.27-0.212-0.553-0.289-0.852c-0.077-0.298-0.164-0.604-0.26-0.91c-0.038-0.097-0.058-0.178-0.058-0.246
		s-0.01-0.139-0.028-0.218c-0.039-0.134-0.068-0.274-0.087-0.419c-0.02-0.143-0.048-0.292-0.087-0.447
		c-0.02-0.095-0.024-0.188-0.014-0.274c0.009-0.086-0.005-0.167-0.044-0.246c-0.019-0.114-0.019-0.235,0-0.36
		c0.02-0.125,0.02-0.246,0-0.362c-0.038-0.094-0.057-0.245-0.057-0.447s0.019-0.352,0.057-0.448c0.02-0.097,0.02-0.187,0-0.274
		c-0.019-0.085-0.019-0.178,0-0.274v-0.173c0.039-0.134,0.053-0.264,0.044-0.391c-0.01-0.125,0.004-0.246,0.043-0.36
		c0.039-0.097,0.058-0.197,0.058-0.303c0-0.107,0.019-0.209,0.058-0.306c0.096-0.326,0.173-0.649,0.23-0.968
		c0.058-0.318,0.145-0.63,0.26-0.939c0.155-0.327,0.298-0.654,0.434-0.98c0.135-0.327,0.298-0.637,0.492-0.927
		c0.577-0.924,1.242-1.694,1.994-2.312c0.75-0.616,1.666-1.146,2.745-1.589c0.25-0.097,0.516-0.174,0.794-0.23
		c0.28-0.06,0.554-0.125,0.824-0.202c0.096-0.039,0.188-0.06,0.274-0.06c0.087,0,0.178-0.009,0.274-0.028l0.867-0.085
		c0.039-0.021,0.091-0.021,0.159,0c0.067,0.018,0.12,0.018,0.159,0c1.367-0.04,2.552,0.101,3.554,0.417
		c1.002,0.318,1.897,0.757,2.688,1.314c0.25,0.174,0.51,0.373,0.78,0.593c0.27,0.222,0.492,0.447,0.665,0.681
		c0.096,0.097,0.192,0.197,0.289,0.303c0.096,0.105,0.183,0.206,0.26,0.303c0.212,0.31,0.424,0.621,0.636,0.939
		c0.211,0.318,0.395,0.661,0.55,1.027c0.115,0.27,0.216,0.529,0.303,0.779c0.087,0.25,0.178,0.521,0.274,0.81
		c0.058,0.191,0.106,0.389,0.145,0.593c0.038,0.202,0.086,0.408,0.145,0.621c0.039,0.134,0.057,0.264,0.057,0.389
		c0,0.127,0.02,0.246,0.058,0.362c0.039,0.116,0.053,0.237,0.043,0.359c-0.01,0.128-0.004,0.237,0.016,0.334V79.906z M34.35,81.12
		c0.038-0.097,0.058-0.234,0.058-0.419c0-0.183-0.02-0.323-0.058-0.42v-0.489c-0.019-0.076-0.024-0.149-0.015-0.217
		c0.01-0.068-0.004-0.141-0.042-0.218c-0.04-0.153-0.064-0.303-0.073-0.447c-0.01-0.146-0.034-0.283-0.072-0.42
		c0-0.096-0.02-0.201-0.058-0.318c-0.057-0.21-0.115-0.423-0.173-0.634c-0.057-0.213-0.135-0.424-0.23-0.637
		c-0.425-0.983-1.036-1.778-1.835-2.384c-0.8-0.607-1.913-0.911-3.339-0.911c-0.038,0.021-0.082,0.024-0.129,0.016
		c-0.048-0.011-0.092-0.004-0.131,0.014c-0.077,0.02-0.153,0.023-0.23,0.015c-0.078-0.009-0.165,0.005-0.26,0.044
		c-0.213,0.037-0.419,0.081-0.621,0.13c-0.203,0.048-0.391,0.109-0.564,0.187c-0.809,0.347-1.45,0.83-1.921,1.446
		c-0.472,0.617-0.853,1.356-1.142,2.224c-0.058,0.213-0.101,0.419-0.13,0.623c-0.029,0.202-0.072,0.408-0.13,0.621
		c-0.02,0.077-0.028,0.149-0.028,0.216c0,0.067-0.01,0.141-0.03,0.217c-0.038,0.097-0.048,0.202-0.028,0.318
		c0.019,0.116,0.019,0.222,0,0.318c-0.039,0.097-0.062,0.274-0.073,0.533c-0.01,0.262,0.004,0.439,0.044,0.536v0.318
		c0.019,0.076,0.029,0.157,0.029,0.245c0,0.086,0.01,0.169,0.028,0.244c0,0.079,0.004,0.149,0.014,0.217
		c0.01,0.068,0.016,0.141,0.016,0.218c0.057,0.213,0.101,0.424,0.129,0.637c0.029,0.21,0.083,0.412,0.159,0.605
		c0.212,0.617,0.472,1.189,0.78,1.719c0.307,0.531,0.694,0.959,1.156,1.286c0.097,0.097,0.198,0.174,0.304,0.232
		c0.105,0.058,0.216,0.114,0.331,0.174c0.212,0.134,0.439,0.239,0.68,0.316c0.241,0.078,0.496,0.155,0.766,0.232
		c0.096,0.037,0.188,0.053,0.274,0.042c0.087-0.009,0.178-0.005,0.274,0.015c0.117,0.04,0.232,0.058,0.347,0.058
		c0.116,0,0.241,0,0.376,0h0.23c0.096-0.018,0.183-0.024,0.26-0.014c0.077,0.009,0.164-0.004,0.26-0.044
		c0.193-0.037,0.385-0.072,0.578-0.101c0.192-0.028,0.375-0.081,0.549-0.158c0.829-0.329,1.479-0.753,1.952-1.273
		c0.471-0.52,0.871-1.193,1.198-2.021c0.097-0.213,0.169-0.443,0.217-0.693c0.047-0.25,0.111-0.5,0.188-0.753l0.086-0.693
		c0.019-0.075,0.029-0.158,0.029-0.244c0-0.088,0-0.178,0-0.274V81.12z"/>
	<path fill="#FFFFFF" d="M41.662,70.283h2.456c0.212,0,0.419,0.012,0.621,0.029c0.202,0.02,0.351,0.087,0.448,0.201
		c0.097,0.156,0.149,0.354,0.159,0.593c0.01,0.241,0.014,0.487,0.014,0.737v2.92v5.953v1.012c0,0.076-0.004,0.158-0.014,0.243
		c-0.01,0.088-0.004,0.169,0.014,0.246v0.463c0,0.174-0.004,0.358-0.014,0.549c-0.01,0.193,0.004,0.366,0.044,0.521
		c0,0.136,0.009,0.241,0.028,0.318c0.039,0.213,0.073,0.424,0.101,0.637c0.029,0.21,0.083,0.423,0.159,0.634
		c0.212,0.503,0.486,0.915,0.823,1.242c0.337,0.329,0.785,0.589,1.344,0.781c0.154,0.04,0.307,0.068,0.462,0.086
		c0.154,0.02,0.309,0.049,0.462,0.088c0.096,0.04,0.183,0.053,0.26,0.044c0.077-0.011,0.164-0.004,0.26,0.013
		c0.077,0.021,0.203,0.024,0.376,0.016c0.173-0.011,0.289-0.024,0.347-0.044h0.434c0.154-0.037,0.307-0.067,0.462-0.085
		c0.155-0.021,0.299-0.049,0.435-0.088c0.27-0.058,0.48-0.125,0.635-0.202c0.347-0.153,0.651-0.362,0.911-0.621
		c0.26-0.262,0.467-0.554,0.621-0.883c0.212-0.5,0.337-1.093,0.376-1.775c0.038-0.685,0.058-1.392,0.058-2.125v-5.751v-3.872
		c0-0.27-0.006-0.568-0.015-0.896c-0.01-0.327,0.043-0.568,0.158-0.722c0.097-0.116,0.231-0.188,0.405-0.218
		c0.174-0.028,0.365-0.044,0.578-0.044h1.85c0.153,0,0.303-0.004,0.447-0.015c0.146-0.009,0.284,0.006,0.42,0.044
		c0.269,0.059,0.441,0.155,0.521,0.289c0.095,0.154,0.139,0.371,0.13,0.65c-0.012,0.278-0.016,0.535-0.016,0.766v3.872v5.839
		c0,0.73-0.009,1.444-0.028,2.138c-0.021,0.693-0.105,1.319-0.26,1.879c-0.27,0.904-0.612,1.69-1.026,2.355
		c-0.415,0.662-0.958,1.227-1.633,1.689c-0.598,0.424-1.301,0.771-2.109,1.041c-0.174,0.057-0.352,0.105-0.534,0.145
		c-0.184,0.037-0.361,0.077-0.535,0.114c-0.116,0.039-0.227,0.06-0.332,0.06c-0.106,0-0.217,0.018-0.333,0.057
		c-0.23,0.037-0.49,0.068-0.781,0.086c-0.289,0.02-0.568,0.03-0.837,0.03c-1.831,0.018-3.391-0.208-4.682-0.68
		c-1.291-0.473-2.303-1.238-3.035-2.299c-0.25-0.345-0.458-0.707-0.621-1.082s-0.314-0.786-0.448-1.229
		c-0.04-0.097-0.058-0.178-0.058-0.245c0-0.066-0.019-0.149-0.057-0.246c-0.155-0.538-0.232-1.146-0.232-1.819s0-1.348,0-2.022
		v-8.063v-2.022c0-0.192,0-0.382,0-0.563c0-0.183,0.029-0.332,0.087-0.448c0.115-0.134,0.269-0.23,0.462-0.289
		c0.039,0,0.077,0,0.117,0C41.583,70.312,41.622,70.304,41.662,70.283z"/>
	<path fill="#FFFFFF" d="M62.181,70.312h2.34c0.213,0,0.419-0.005,0.621-0.014c0.202-0.011,0.382,0.024,0.535,0.101
		c0.193,0.077,0.343,0.193,0.448,0.348c0.105,0.153,0.206,0.307,0.303,0.461l1.041,1.648c0.674,1.097,1.354,2.19,2.036,3.279
		c0.686,1.089,1.363,2.182,2.039,3.279c0.327,0.52,0.65,1.047,0.969,1.575c0.315,0.529,0.649,1.045,0.996,1.546
		c0.077,0.116,0.149,0.232,0.218,0.347c0.065,0.116,0.157,0.222,0.274,0.318c0.037,0.039,0.085,0.077,0.143,0.116
		c0.059,0.037,0.116,0.037,0.173,0c0.137-0.039,0.204-0.125,0.204-0.261c0-0.135,0.018-0.279,0.058-0.433
		c0.02-0.137,0.023-0.285,0.015-0.448c-0.011-0.164-0.015-0.322-0.015-0.477v-1.821v-6.703v-1.101c0-0.096-0.005-0.19-0.016-0.287
		c-0.009-0.097-0.004-0.185,0.016-0.261v-0.318c0-0.269,0.057-0.481,0.173-0.635c0.097-0.136,0.227-0.213,0.391-0.232
		c0.163-0.018,0.352-0.028,0.562-0.028h1.765c0.153,0,0.308,0,0.461,0s0.29,0.02,0.404,0.059c0.25,0.097,0.386,0.264,0.405,0.505
		c0.018,0.241,0.029,0.524,0.029,0.852v3.181v12.107v2.428c0,0.211,0.004,0.424,0.015,0.635c0.009,0.213-0.026,0.377-0.103,0.491
		c-0.077,0.116-0.167,0.189-0.274,0.218c-0.105,0.028-0.235,0.063-0.389,0.101h-1.012h-1.59c-0.173,0-0.342,0-0.507,0
		c-0.162,0-0.303-0.028-0.419-0.085c-0.211-0.097-0.376-0.227-0.489-0.392c-0.117-0.164-0.233-0.342-0.348-0.535
		c-0.173-0.27-0.342-0.544-0.507-0.823c-0.162-0.278-0.331-0.553-0.505-0.823l-4.335-6.936c-0.27-0.443-0.535-0.872-0.795-1.286
		c-0.261-0.413-0.524-0.844-0.794-1.287c-0.097-0.134-0.209-0.303-0.334-0.505c-0.125-0.201-0.292-0.303-0.505-0.303
		c-0.153,0.134-0.237,0.288-0.246,0.461c-0.008,0.174-0.013,0.396-0.013,0.665v2.024v6.905v1.128c0,0.097,0.005,0.193,0.013,0.288
		c0.009,0.096-0.004,0.192-0.043,0.289v0.318c0,0.308-0.049,0.529-0.144,0.665c-0.096,0.114-0.228,0.183-0.391,0.202
		c-0.164,0.02-0.351,0.028-0.563,0.028h-1.763c-0.154,0-0.31,0-0.463,0c-0.154,0-0.288-0.02-0.404-0.057
		c-0.25-0.097-0.391-0.271-0.419-0.521c-0.029-0.25-0.044-0.54-0.044-0.867V86.12V74.531v-2.688c0-0.213,0-0.435,0-0.665
		s0.039-0.412,0.116-0.548c0.077-0.135,0.211-0.231,0.403-0.29c0.04,0,0.084-0.005,0.132-0.014
		C62.097,70.316,62.141,70.312,62.181,70.312z"/>
	<path fill="#FFFFFF" d="M99.98,79.935c0,0.06,0.005,0.137,0.014,0.233c0.011,0.097,0.015,0.201,0.015,0.318
		c0,0.113-0.004,0.222-0.015,0.315c-0.009,0.097-0.014,0.165-0.014,0.204c0,0.134-0.007,0.264-0.016,0.389s-0.015,0.246-0.015,0.362
		c-0.038,0.097-0.053,0.193-0.042,0.287c0.009,0.097,0.004,0.193-0.016,0.29c-0.039,0.213-0.068,0.424-0.086,0.637
		c-0.02,0.211-0.059,0.424-0.116,0.634c-0.097,0.33-0.184,0.642-0.261,0.939c-0.077,0.299-0.174,0.593-0.288,0.883
		c-0.329,0.808-0.732,1.541-1.214,2.195c-0.482,0.656-1.06,1.214-1.733,1.677c-0.387,0.27-0.786,0.5-1.198,0.693
		c-0.415,0.193-0.863,0.367-1.346,0.521c-0.193,0.057-0.389,0.101-0.593,0.13c-0.202,0.028-0.408,0.072-0.621,0.129
		c-0.097,0.02-0.187,0.031-0.274,0.031c-0.086,0-0.178,0.009-0.274,0.028c-0.077,0.02-0.153,0.024-0.23,0.013
		c-0.077-0.009-0.165-0.004-0.262,0.016c-0.037,0.02-0.097,0.024-0.173,0.016c-0.077-0.011-0.134-0.007-0.174,0.013
		c-0.153,0.04-0.347,0.049-0.577,0.028c-0.23-0.018-0.433-0.028-0.605-0.028h-6.734c-0.327,0-0.602-0.013-0.823-0.044
		c-0.222-0.028-0.382-0.158-0.477-0.389c-0.059-0.155-0.083-0.391-0.072-0.709c0.009-0.317,0.014-0.581,0.014-0.794V71.989
		c0-0.232-0.005-0.477-0.014-0.737c-0.011-0.26,0.033-0.468,0.13-0.621c0.076-0.117,0.222-0.211,0.433-0.29
		c0.039-0.018,0.076-0.024,0.116-0.014c0.037,0.009,0.076,0.005,0.116-0.015h7.772c0.116,0,0.237-0.005,0.362-0.014
		c0.125-0.011,0.234-0.004,0.331,0.014h0.347c0.097,0.039,0.202,0.053,0.318,0.044s0.222,0.004,0.318,0.043
		c0.116,0.038,0.227,0.053,0.331,0.042c0.105-0.009,0.218,0.007,0.334,0.044c0.268,0.06,0.529,0.112,0.779,0.16
		c0.25,0.049,0.491,0.121,0.722,0.216c0.213,0.096,0.424,0.184,0.637,0.261c0.211,0.077,0.415,0.174,0.606,0.287
		c0.482,0.31,0.926,0.608,1.33,0.898l0.173,0.173c0.193,0.154,0.367,0.327,0.521,0.521l0.261,0.23
		c0.095,0.153,0.207,0.303,0.332,0.448c0.125,0.145,0.234,0.294,0.331,0.447c0.25,0.404,0.472,0.834,0.665,1.286
		s0.367,0.931,0.521,1.432c0.097,0.25,0.16,0.509,0.188,0.779c0.029,0.27,0.072,0.54,0.13,0.81c0,0.097,0.004,0.178,0.016,0.246
		c0.009,0.067,0.013,0.138,0.013,0.215c0.04,0.116,0.053,0.241,0.044,0.378c-0.011,0.134,0.005,0.25,0.044,0.347V79.935z
		 M95.472,81.322c0.038-0.095,0.058-0.25,0.058-0.461c0-0.213-0.02-0.366-0.058-0.463V79.85c-0.039-0.174-0.063-0.355-0.072-0.549
		c-0.011-0.193-0.035-0.367-0.072-0.521c-0.04-0.097-0.053-0.188-0.044-0.274c0.009-0.088-0.004-0.178-0.044-0.274
		c-0.097-0.31-0.187-0.604-0.274-0.882c-0.086-0.279-0.206-0.545-0.36-0.795c-0.289-0.463-0.621-0.862-0.996-1.198
		c-0.378-0.338-0.834-0.621-1.374-0.854c-0.174-0.057-0.347-0.109-0.521-0.157c-0.173-0.049-0.347-0.093-0.52-0.13
		c-0.154-0.02-0.295-0.035-0.42-0.044s-0.263-0.033-0.419-0.072c-0.077-0.02-0.153-0.024-0.23-0.016
		c-0.077,0.011-0.145,0.007-0.202-0.013h-0.637c-0.097-0.021-0.201-0.024-0.318-0.016c-0.113,0.011-0.23,0.016-0.347,0.016h-1.299
		c-0.04,0.037-0.102,0.048-0.189,0.028c-0.085-0.02-0.157-0.02-0.215,0c-0.097,0.039-0.193,0.072-0.29,0.101
		c-0.096,0.028-0.173,0.093-0.23,0.189c-0.076,0.096-0.116,0.23-0.116,0.403c0,0.174,0,0.366,0,0.577
		c0,0.25-0.004,0.512-0.015,0.781c-0.009,0.271-0.014,0.54-0.014,0.809v8.062c0,0.116-0.004,0.241-0.016,0.378
		c-0.009,0.134,0.005,0.25,0.044,0.347v0.287c0,0.137,0.005,0.266,0.016,0.391c0.009,0.126,0.033,0.237,0.072,0.332
		c0.114,0.232,0.336,0.354,0.663,0.362s0.665,0.015,1.012,0.015c0.751,0,1.513-0.006,2.283-0.015s1.427-0.121,1.967-0.332
		c0.711-0.289,1.275-0.676,1.689-1.156c0.413-0.48,0.767-1.08,1.054-1.791c0.077-0.156,0.137-0.329,0.174-0.521
		c0.039-0.193,0.088-0.387,0.145-0.579v-0.23c0.04-0.134,0.058-0.279,0.058-0.433c0-0.156,0.02-0.31,0.059-0.463V81.322z"/>
</g>
</svg>
